<?xml version="1.0" encoding="utf-8"?>
<!-- Generator: Adobe Illustrator 16.2.1, SVG Export Plug-In . SVG Version: 6.00 Build 0)  -->
<!DOCTYPE svg PUBLIC "-//W3C//DTD SVG 1.1//EN" "http://www.w3.org/Graphics/SVG/1.1/DTD/svg11.dtd" [
	<!ENTITY st0 "fill-rule:evenodd;clip-rule:evenodd;fill:#0DB14B;">
	<!ENTITY st1 "fill-rule:evenodd;clip-rule:evenodd;">
	<!ENTITY st2 "fill-rule:evenodd;clip-rule:evenodd;fill:#F37021;">
	<!ENTITY st3 "fill-rule:evenodd;clip-rule:evenodd;fill:#C9234A;">
	<!ENTITY st4 "fill-rule:evenodd;clip-rule:evenodd;fill:#FDB913;">
	<!ENTITY st5 "fill-rule:evenodd;clip-rule:evenodd;fill:#645FAA;">
	<!ENTITY st6 "fill-rule:evenodd;clip-rule:evenodd;fill:#0089CF;">
]>
<svg version="1.1" id="Layer_1" xmlns="http://www.w3.org/2000/svg" xmlns:xlink="http://www.w3.org/1999/xlink" x="0px" y="0px"
	 width="133.92px" height="52.063px" viewBox="0 0 133.92 52.063" style="enable-background:new 0 0 133.92 52.063;"
	 xml:space="preserve">
<g>
	<g>
		<path style="&st5;" d="M42.026,22.387c0.217,0.437,0.089,1.01-0.137,1.401l-1.748,3.934l-0.015,0.018l-0.632-3.99
			c-0.05-0.382,0.359-0.546,0.6-0.73c-0.012-0.055-0.074-0.054-0.113-0.08l-0.591-0.005l-0.018-0.018
			c0.003-0.496,0.271-0.953,0.722-1.193c0.472-0.273,1.138-0.199,1.547,0.15C41.806,22.022,41.946,22.194,42.026,22.387
			L42.026,22.387z"/>
		<path style="&st3;" d="M38.805,22.251c0.143,0.264,0.225,0.564,0.175,0.896l-0.712,4.568c0.003,0.006-0.002,0.012-0.009,0.015
			l-0.184-0.368l-1.788-3.99c-0.166-0.514-0.011-1.051,0.362-1.419c0.377-0.383,0.998-0.486,1.491-0.279
			C38.401,21.788,38.651,21.995,38.805,22.251L38.805,22.251z"/>
		<path style="&st6;" d="M44.611,24.174c0.241,0.409,0.188,1.03-0.08,1.41c-0.167,0.267-0.439,0.4-0.672,0.575L40.159,28.7H40.15
			l0.042-0.121l1.962-4.429c0.294-0.522,0.854-0.786,1.449-0.706C44.009,23.519,44.416,23.782,44.611,24.174L44.611,24.174z"/>
		<path style="&st2;" d="M36.202,24.15l2.043,4.55h-0.033l-4.118-2.837c-0.418-0.353-0.59-0.881-0.448-1.415
			c0.107-0.401,0.439-0.775,0.834-0.923C35.127,23.286,35.857,23.539,36.202,24.15L36.202,24.15z"/>
		<path style="&st0;" d="M45.687,27.386c0.205,0.434,0.124,1.027-0.17,1.396c-0.291,0.353-0.68,0.545-1.137,0.534l-4.39,0.002
			l3.677-2.559c0.36-0.232,0.906-0.273,1.298-0.085C45.268,26.792,45.552,27.089,45.687,27.386L45.687,27.386z"/>
		<path style="&st4;" d="M32.688,27.386c-0.206,0.434-0.125,1.027,0.168,1.396c0.291,0.353,0.68,0.545,1.137,0.534l4.39,0.002
			l-3.678-2.559c-0.359-0.232-0.906-0.273-1.297-0.085C33.105,26.792,32.82,27.089,32.688,27.386L32.688,27.386z"/>
	</g>
	<g>
		<path d="M0.406,22.662c0-0.13-0.043-0.232-0.406-0.261v-0.174h3.496v0.174c-0.334,0.014-0.406,0.102-0.406,0.188
			c0,0.16,2.509,2.828,3.525,3.945v-3.873c0-0.174-0.117-0.247-0.305-0.261v-0.174h2.655v0.174c-0.363,0.029-0.406,0.13-0.406,0.261
			v6.76c0,0.13,0.043,0.232,0.406,0.261v0.174H6.208v-0.174c0.261,0,0.333-0.058,0.333-0.16c0-0.188-0.363-0.377-4.192-4.657v4.555
			c0,0.13,0.044,0.232,0.406,0.261v0.174H0v-0.174c0.363-0.029,0.406-0.131,0.406-0.261V22.662z"/>
		<path d="M10.906,22.662c0-0.13-0.043-0.232-0.406-0.261v-0.174h5.526c1.566,0,2.712,0.58,2.712,2.016
			c0,0.871-0.581,1.408-1.393,1.581v0.029c0.972,0.261,1.683,0.783,1.683,1.857c0,1.16-0.871,2.147-2.93,2.147H10.5v-0.174
			c0.362-0.029,0.406-0.131,0.406-0.261V22.662z M13.082,25.099h1.973c1.247,0,1.566-0.087,1.566-0.668
			c0-0.58-0.319-0.667-1.566-0.667h-1.973V25.099z M13.082,28.319h2.466c1.015,0,1.421-0.232,1.421-0.87s-0.406-0.87-1.421-0.87
			h-2.466V28.319z"/>
		<path d="M27.397,25.041l-0.145-0.102c0.014-0.058,0.029-0.116,0.029-0.218c0-0.291-1.117-0.667-2.35-0.667
			c-1.175,0-2.698,0.507-2.698,1.987s1.523,1.987,2.698,1.987c0.508,0,2.437-0.392,2.437-0.812c0-0.087-0.058-0.145-0.087-0.218
			l0.159-0.101l1.494,2.277l-0.174,0.102c-0.043-0.102-0.102-0.116-0.203-0.116c-0.291,0-1.639,0.783-3.801,0.783
			c-2.321,0-4.787-1.306-4.787-3.902s2.466-3.902,4.787-3.902c1.16,0,1.987,0.146,2.567,0.305c0.566,0.159,0.856,0.275,1.001,0.275
			c0.087,0,0.159-0.043,0.217-0.116l0.16,0.043L27.397,25.041z"/>
		<path d="M54.039,22.662c0-0.13-0.043-0.232-0.406-0.261v-0.174h2.988v0.174c-0.362,0.029-0.406,0.13-0.406,0.261v3.888
			c0,2.552-1.784,3.394-4.003,3.394c-2.22,0-4.003-0.841-4.003-3.394v-3.888c0-0.13-0.043-0.232-0.406-0.261v-0.174h2.988v0.174
			c-0.362,0.029-0.406,0.13-0.406,0.261v3.888c0,1.117,0.667,1.566,1.828,1.566c1.16,0,1.827-0.449,1.827-1.566V22.662z"/>
		<path d="M59.434,22.662c0-0.13-0.043-0.232-0.406-0.261v-0.174h3.496v0.174c-0.334,0.014-0.406,0.102-0.406,0.188
			c0,0.16,2.51,2.828,3.525,3.945v-3.873c0-0.174-0.116-0.247-0.305-0.261v-0.174h2.655v0.174c-0.363,0.029-0.406,0.13-0.406,0.261
			v6.76c0,0.13,0.043,0.232,0.406,0.261v0.174h-2.756v-0.174c0.261,0,0.333-0.058,0.333-0.16c0-0.188-0.362-0.377-4.192-4.657v4.555
			c0,0.13,0.043,0.232,0.406,0.261v0.174h-2.756v-0.174c0.363-0.029,0.406-0.131,0.406-0.261V22.662z"/>
		<path d="M70.47,29.857v-0.174c0.362-0.029,0.406-0.131,0.406-0.261v-6.76c0-0.13-0.044-0.232-0.406-0.261v-0.174h2.987v0.174
			c-0.362,0.029-0.406,0.13-0.406,0.261v6.76c0,0.13,0.044,0.232,0.406,0.261v0.174H70.47z"/>
		<path d="M78.461,29.857v-0.174c0.175-0.029,0.218-0.073,0.218-0.131c0-0.13-2.596-5.991-2.916-6.745
			c-0.13-0.319-0.188-0.392-0.333-0.406v-0.174h2.974v0.174c-0.231,0.014-0.29,0.073-0.29,0.174c0,0.117,0.217,0.464,2.03,4.41
			c1.726-3.83,1.958-4.25,1.958-4.424c0-0.102-0.044-0.146-0.217-0.16v-0.174h2.494v0.174c-0.116,0.029-0.174,0.058-0.217,0.188
			c-0.145,0.464-2.916,6.745-2.916,6.948c0,0.073,0.072,0.131,0.203,0.131v0.189H78.461z"/>
		<path d="M91.805,27.071H91.63c-0.042-0.188-0.145-0.333-0.436-0.333h-2.696v1.349h4.655c0.16,0,0.217-0.072,0.261-0.435h0.175
			v2.524h-0.175c-0.043-0.246-0.101-0.319-0.261-0.319h-7.238v-0.174c0.362-0.029,0.406-0.131,0.406-0.261v-6.76
			c0-0.13-0.044-0.232-0.406-0.261v-0.174h7.238c0.16,0,0.217-0.073,0.261-0.406h0.175v2.524h-0.175
			c-0.043-0.333-0.101-0.406-0.261-0.406h-4.655v1.204h2.696c0.291,0,0.394-0.145,0.436-0.333h0.175V27.071z"/>
		<path d="M98.46,29.421c0,0.13,0.044,0.232,0.405,0.261v0.174h-2.987v-0.174c0.363-0.029,0.407-0.131,0.407-0.261v-6.76
			c0-0.13-0.044-0.232-0.407-0.261v-0.174h5.309c2.147,0,3.061,0.754,3.061,2.408c0,1.334-0.869,2.045-2.073,2.379l1.71,2.408
			c0.132,0.188,0.263,0.261,0.423,0.261v0.174h-3.018v-0.174c0.203-0.015,0.319-0.087,0.319-0.261c0-0.13-1.537-2.132-1.727-2.437
			H98.46V29.421z M98.46,25.447h2.438c0.855,0,1.116-0.377,1.116-0.798c0-0.42-0.261-0.797-1.116-0.797H98.46V25.447z"/>
		<path d="M106.843,26.84l0.145,0.072c-0.028,0.073-0.028,0.174-0.028,0.304c0,0.392,1.552,1.045,3.06,1.045
			c1.451,0,2.104-0.348,2.104-0.987c0-1.073-5.976,0.117-5.976-2.683c0-1.45,1.393-2.451,3.525-2.451c1.986,0,3.423,0.61,3.814,0.61
			c0.188,0,0.289-0.102,0.392-0.218l0.16,0.058l-1.003,2.017l-0.173-0.088v-0.159c0-0.363-1.653-0.77-3.018-0.77
			c-1.262,0-1.697,0.349-1.697,0.682c0,1.291,6.005-0.29,6.005,3.046c0,1.248-0.941,2.625-4.091,2.625
			c-2.422,0-3.495-0.667-3.828-0.667c-0.115,0-0.203,0.101-0.291,0.189l-0.173-0.044L106.843,26.84z"/>
		<path d="M117.632,28.203c-0.376,1.059-0.464,1.248-0.464,1.334c0,0.087,0.059,0.146,0.263,0.146v0.174h-2.568v-0.174
			c0.203-0.044,0.291-0.102,0.378-0.334c0.13-0.333,2.58-6.716,2.58-6.803c0-0.101-0.158-0.131-0.289-0.145v-0.174h3.786v0.174
			c-0.16,0.014-0.261,0.044-0.261,0.188c0,0.116,1.784,4.453,2.683,6.658c0.145,0.348,0.232,0.435,0.407,0.435v0.174h-2.857v-0.174
			c0.203-0.015,0.273-0.087,0.273-0.174c0-0.058-0.434-1.117-0.492-1.306H117.632z M117.996,27.042h2.698l-1.406-3.453
			L117.996,27.042z"/>
		<path d="M128.497,28.087h4.988c0.16,0,0.219-0.072,0.263-0.406h0.173v2.553h-0.173c-0.044-0.304-0.103-0.377-0.263-0.377h-7.57
			v-0.174c0.361-0.029,0.405-0.131,0.405-0.261v-6.76c0-0.13-0.044-0.232-0.405-0.261v-0.174h2.987v0.174
			c-0.362,0.029-0.405,0.13-0.405,0.261V28.087z"/>
	</g>
	<path style="&st1;" d="M42.384,18.725C45.89,9.062,55.426,2.13,66.647,2.13c11.211,0,20.741,6.92,24.256,16.569
		c0.207,0.571,0.396,0.699,0.204,0.002C88.21,8.153,78.273,0,66.611,0c-11.8,0-21.707,7.95-24.472,18.689
		C41.927,19.516,42.089,19.536,42.384,18.725z"/>
	<path style="&st1;" d="M42.384,33.338c3.506,9.663,13.042,16.595,24.263,16.595c11.211,0,20.741-6.92,24.256-16.569
		c0.207-0.571,0.396-0.699,0.204-0.002C88.21,43.909,78.273,52.063,66.611,52.063c-11.8,0-21.707-7.95-24.472-18.689
		C41.927,32.547,42.089,32.527,42.384,33.338z"/>
</g>
</svg>
