<?xml version="1.0" encoding="utf-8"?>
<!-- Generator: Adobe Illustrator 16.2.1, SVG Export Plug-In . SVG Version: 6.00 Build 0)  -->
<!DOCTYPE svg PUBLIC "-//W3C//DTD SVG 1.1//EN" "http://www.w3.org/Graphics/SVG/1.1/DTD/svg11.dtd" [
	<!ENTITY st0 "fill:#B3DC1F;">
	<!ENTITY st1 "fill-rule:evenodd;clip-rule:evenodd;fill:#B3DC1F;">
]>
<svg version="1.1" id="Layer_1" xmlns="http://www.w3.org/2000/svg" xmlns:xlink="http://www.w3.org/1999/xlink" x="0px" y="0px"
	 width="141.56px" height="20px" viewBox="0 0 141.56 20" style="enable-background:new 0 0 141.56 20;" xml:space="preserve">
<g>
	<g>
		<path style="&st1;" d="M11.277,16.102v1.553C2.963,16.872,0,8.301,0,8.301s5.232-5.116,11.277-5.602v1.463
			C5.819,4.577,3.088,8.61,3.088,8.61S5.177,15.333,11.277,16.102z M7.833,9.101c0,0,1.507-1.804,3.437-1.572
			c0.002,0.001,0.004,0.001,0.007,0.002V5.967c-3.678,0.398-5.891,2.85-5.891,2.85s1.28,4.794,5.891,5.617v-1.425
			C8.676,12.135,7.833,9.101,7.833,9.101z"/>
		<path style="&st0;" d="M11.277,5.967V4.162c0.175-0.014,0.353-0.022,0.533-0.028c4.94-0.156,8.184,4.246,8.184,4.246
			s-3.501,4.863-7.258,4.863c-0.538,0-1.022-0.088-1.458-0.233V7.531c1.923,0.232,2.31,1.082,3.466,3.009l2.574-2.168
			c0,0-1.879-2.464-5.043-2.464C11.928,5.908,11.599,5.934,11.277,5.967z M11.277,0v2.699c0.178-0.014,0.355-0.026,0.533-0.033
			c6.871-0.232,11.347,5.635,11.347,5.635s-5.143,6.252-10.498,6.252c-0.492,0-0.951-0.045-1.382-0.12v1.668
			c0.37,0.046,0.751,0.074,1.15,0.074c4.985,0,8.59-2.544,12.081-5.557c0.579,0.463,2.947,1.588,3.434,2.083
			c-3.318,2.78-11.053,5.018-15.438,5.018c-0.424,0-0.83-0.027-1.228-0.065V20h18.948V0H11.277z"/>
	</g>
	<g>
		<path d="M35.272,20V0c0,0,3.691,0,9.906,0c6.215,0,10.141,2.757,10.141,7.943c0,5.187,0,12.057,0,12.057h-5.467
			c0,0,0-7.476,0-10.701s-2.243-4.533-4.206-4.533c-1.962,0-4.625,0-4.625,0V20H35.272z"/>
		<rect x="79.384" width="5.748" height="20"/>
		<rect x="110.646" width="5.747" height="20"/>
		<polygon points="71.487,0 66.768,15.374 62.048,0 56.394,0 62.842,20 70.693,20 77.142,0 		"/>
		<path d="M135.905,20h5.654l-7.605-20h-7.851l-7.604,20h5.653l1.304-3.411h9.146L135.905,20z M126.814,13.038l3.214-8.412
			l3.216,8.412H126.814z"/>
		<path d="M107.89,10c0-9.673-7.195-10-9.531-10h-9.581v20h5.747c0,0,1.498,0,3.834,0S107.89,19.673,107.89,10L107.89,10z
			 M97.424,15.701h-2.899V4.299h2.899c1.962,0,5,0.934,5,5.701l0,0C102.424,14.767,99.386,15.701,97.424,15.701z"/>
	</g>
</g>
</svg>
