<?xml version="1.0" encoding="utf-8"?>
<!-- Generator: Adobe Illustrator 16.2.1, SVG Export Plug-In . SVG Version: 6.00 Build 0)  -->
<!DOCTYPE svg PUBLIC "-//W3C//DTD SVG 1.1//EN" "http://www.w3.org/Graphics/SVG/1.1/DTD/svg11.dtd" [
	<!ENTITY st0 "fill:#3B5CAD;">
]>
<svg version="1.1" id="Layer_1" xmlns="http://www.w3.org/2000/svg" xmlns:xlink="http://www.w3.org/1999/xlink" x="0px" y="0px"
	 width="52.017px" height="52.017px" viewBox="0 0 52.017 52.017" style="enable-background:new 0 0 52.017 52.017;"
	 xml:space="preserve">
<path style="&st0;" d="M44.379,7.638C39.287,2.546,33.165,0,26.009,0C18.852,0,12.728,2.546,7.636,7.638
	C2.545,12.729,0,18.853,0,26.008c0,7.205,2.545,13.341,7.636,18.408c5.092,5.067,11.216,7.6,18.374,7.6
	c7.155,0,13.278-2.533,18.37-7.6c5.091-5.067,7.637-11.203,7.637-18.408C52.017,18.853,49.47,12.729,44.379,7.638L44.379,7.638z
	 M43.55,43.51c-4.828,4.854-10.676,7.281-17.542,7.281c-6.82,0-12.655-2.427-17.507-7.281c-4.852-4.854-7.276-10.693-7.276-17.517
	c0-6.872,2.424-12.723,7.276-17.553c4.852-4.831,10.687-7.246,17.507-7.246c6.819,0,12.655,2.428,17.506,7.282
	c4.851,4.854,7.278,10.693,7.278,17.517S48.378,38.657,43.55,43.51L43.55,43.51z M45.966,14.242
	c-2.354-3.845-5.669-6.415-9.944-7.713c-2.066-0.625-3.818-0.938-5.259-0.938c-1.585,0-2.905,0.396-3.962,1.19
	c-1.057,0.793-1.825,1.188-2.305,1.188c-1.201,0-1.801-0.577-1.801-1.73c0-0.864,0.455-1.573,1.367-2.125
	c0.913-0.553,2.139-0.83,3.675-0.83c2.449,0,4.299,0.312,5.548,0.937l0.072-0.216c-2.259-0.817-4.707-1.226-7.348-1.226
	c-4.42,0-8.359,1.082-11.816,3.244c-3.796,2.355-6.341,5.672-7.637,9.95c-0.624,2.02-0.937,3.772-0.937,5.263
	c0,1.586,0.395,2.919,1.188,4c0.793,1.082,1.189,1.862,1.189,2.342c0,1.153-0.577,1.731-1.73,1.731c-1.97,0-2.953-1.682-2.953-5.046
	c0-1.971,0.289-3.821,0.865-5.552L3.962,18.64c-0.769,3.077-1.153,5.526-1.153,7.352c0,4.471,1.079,8.435,3.241,11.896
	c2.354,3.798,5.668,6.344,9.944,7.641c2.017,0.625,3.77,0.938,5.259,0.938c1.584,0,2.904-0.407,3.961-1.225
	c1.057-0.816,1.826-1.225,2.306-1.225c1.201,0,1.801,0.601,1.801,1.803c0,0.817-0.456,1.501-1.369,2.054s-2.137,0.829-3.674,0.829
	c-2.258,0-4.106-0.288-5.548-0.866l-0.072,0.217c1.68,0.769,4.129,1.154,7.348,1.154c4.419,0,8.356-1.08,11.816-3.244
	c3.794-2.355,6.339-5.671,7.637-9.95c0.625-2.066,0.937-3.796,0.937-5.191c0-1.633-0.397-2.989-1.189-4.071
	s-1.188-1.839-1.188-2.271c0-1.202,0.577-1.803,1.73-1.803c0.863,0,1.571,0.469,2.125,1.406c0.552,0.938,0.829,2.174,0.829,3.712
	c0,1.683-0.289,3.534-0.865,5.551l0.216,0.072c0.769-2.306,1.153-4.78,1.153-7.424C49.207,21.571,48.126,17.656,45.966,14.242
	L45.966,14.242L45.966,14.242z M38.507,37.492c-1.321,1.369-2.965,2.053-4.935,2.053c-2.354,0-4.227-0.865-5.618-2.595
	c-1.25-1.489-1.874-3.268-1.874-5.335c0-3.748,1.704-6.511,5.115-8.29c-0.241-0.192-0.481-0.48-0.721-0.865
	c-2.018,1.442-4.226,2.836-6.627,4.181c-0.192,3.077-0.504,5.263-0.937,6.561c-1.393,4.23-3.746,6.344-7.06,6.344
	c-1.344,0-2.378-0.408-3.098-1.226c-0.721-0.817-1.08-1.802-1.08-2.955c0-1.827,0.864-3.532,2.593-5.119
	c0.913-0.817,2.041-1.634,3.385-2.452c0.673-0.385,2.064-1.128,4.179-2.234c0.096-0.577,0.168-1.033,0.216-1.37
	c-0.721,0.673-1.682,1.009-2.881,1.009c-1.634,0-2.643-0.888-3.027-2.666c-2.354-0.193-3.554-1.491-3.602-3.894
	c-0.048-2.066,0.528-3.1,1.729-3.1c0.384,0,0.577,0.217,0.577,0.649c0,0.048-0.06,0.325-0.18,0.83
	c-0.121,0.505-0.18,0.95-0.18,1.332c0,1.442,0.528,2.164,1.585,2.164c0-1.97,0.611-3.892,1.835-5.766
	c1.226-1.875,2.605-2.812,4.143-2.812c1.633,0,2.45,0.77,2.45,2.306c0,1.635-0.661,3.269-1.982,4.902
	c-1.321,1.635-2.701,2.691-4.142,3.172c0.192,0.721,0.6,1.082,1.225,1.082c1.055,0,2.064-0.601,3.025-1.803
	c0.481-2.45,1.416-3.676,2.81-3.676c0.577,0,0.865,0.312,0.865,0.938c0,0.817-0.673,1.947-2.017,3.388
	c-0.144,0.72-0.216,1.442-0.216,2.163c2.449-1.489,4.347-2.715,5.692-3.676c-0.097-0.336-0.144-0.889-0.144-1.658
	c0-1.777,0.503-3.411,1.511-4.9c1.009-1.491,2.234-2.236,3.675-2.236c1.681,0,2.521,0.817,2.521,2.45
	c0,2.02-1.682,4.301-5.043,6.848c0.288,0.673,0.673,1.13,1.153,1.371c0.096-0.192,0.695-0.288,1.801-0.288
	c1.393,0,2.089,0.36,2.089,1.082c0,0.817-0.816,1.226-2.449,1.226c-0.336,0.048-0.84,0-1.514-0.144
	c-3.075,0.817-4.611,3.101-4.611,6.848c0,1.634,0.467,3.041,1.404,4.218s2.126,1.766,3.567,1.766c1.201,0,2.208-0.407,3.025-1.225
	s1.225-1.875,1.225-3.173c0.048-2.354-0.769-3.533-2.448-3.533c-1.058,0-1.61,0.529-1.658,1.587c0,0.529,0.169,1.01,0.505,1.442
	c0.336,0.433,0.504,0.792,0.504,1.08c0,0.625-0.336,0.937-1.009,0.937c-0.721,0-1.321-0.312-1.801-0.937
	c-0.481-0.625-0.721-1.394-0.721-2.307c0-1.104,0.419-2.042,1.26-2.812c0.841-0.769,1.862-1.153,3.063-1.153
	c1.49,0,2.665,0.553,3.53,1.658c0.865,1.106,1.298,2.451,1.298,4.037C40.489,34.596,39.828,36.122,38.507,37.492L38.507,37.492z
	 M34.654,13.954c-0.576,0-1.188,0.529-1.837,1.586c-0.649,1.058-0.973,2.283-0.973,3.676c2.21-1.921,3.315-3.412,3.315-4.469
	C35.159,14.218,34.991,13.954,34.654,13.954L34.654,13.954L34.654,13.954z M21.901,13.954c-0.721,0-1.514,0.757-2.378,2.272
	c-0.865,1.514-1.296,2.871-1.296,4.072c1.153-0.625,2.137-1.537,2.953-2.739c0.817-1.202,1.226-2.235,1.226-3.1
	C22.406,14.122,22.237,13.954,21.901,13.954L21.901,13.954L21.901,13.954z M14.193,35.435c0,1.25,0.552,1.875,1.657,1.875
	c1.44,0,2.713-1.032,3.818-3.1c0.912-1.73,1.536-3.82,1.873-6.272C16.642,30.342,14.193,32.84,14.193,35.435L14.193,35.435
	L14.193,35.435z"/>
</svg>
