<?xml version="1.0" encoding="utf-8"?>
<!-- Generator: Adobe Illustrator 16.2.1, SVG Export Plug-In . SVG Version: 6.00 Build 0)  -->
<!DOCTYPE svg PUBLIC "-//W3C//DTD SVG 1.1//EN" "http://www.w3.org/Graphics/SVG/1.1/DTD/svg11.dtd" [
	<!ENTITY st0 "fill-rule:evenodd;clip-rule:evenodd;">
]>
<svg version="1.1" id="Layer_1" xmlns="http://www.w3.org/2000/svg" xmlns:xlink="http://www.w3.org/1999/xlink" x="0px" y="0px"
	 width="45.197px" height="67.131px" viewBox="0 0 45.197 67.131" style="enable-background:new 0 0 45.197 67.131;"
	 xml:space="preserve">
<path d="M1.184,56.592c1.735,0.899,4.409,1.078,6.158,0.43c0.829-0.296,1.545-1.025,1.585-1.911
	c-0.015-0.701-0.385-1.376-1.02-1.711c-1.681-0.714-3.722-0.566-5.528-1c-0.11-0.037-0.336-0.129-0.336-0.448
	c0.044-0.791,1.694-0.891,2.722-0.814c1.131,0.12,2.479,0.329,2.908,1.513l0.895-0.009l-0.005-2.156l-0.915-0.011l-0.003,0.446
	l-0.331-0.136c-2.013-0.928-5.379-0.949-6.659,0.42c-0.465,0.41-0.694,1.131-0.358,1.779c1.008,1.79,3.431,1.427,5.253,1.749
	c0.534,0.097,1.075,0.025,1.434,0.483c0.109,0.231,0.096,0.583-0.166,0.745c-1.104,0.71-2.771,0.522-3.973,0.185
	c-0.688-0.215-1.557-0.751-1.666-1.519H0.29l0.007,2.56l0.9-0.012L1.184,56.592L1.184,56.592z"/>
<polygon points="35.695,54.559 35.701,56.171 34.569,56.168 34.569,57.05 39.026,57.056 39.026,56.168 37.852,56.173 37.849,54.453 
	40.662,51.395 41.822,51.395 41.82,50.525 38.21,50.525 38.206,51.395 38.911,51.395 37.118,53.321 35.581,51.395 36.29,51.395 
	36.29,50.525 31.825,50.518 31.825,51.395 33.071,51.395 35.695,54.559 "/>
<path d="M20.922,50.518l3.111,0.007l4.319,3.795v-2.923l-1.07,0.003v-0.875l3.646-0.007v0.877l-1.077,0.002l-0.012,5.659
	l-1.29-0.006c-1.721-1.402-3.356-2.946-5.09-4.318v3.448h1.124l-0.012,0.87l-3.646,0.006v-0.881l1.122,0.005l-0.009-4.78
	l-1.112-0.005L20.922,50.518L20.922,50.518z"/>
<path style="&st0;" d="M15.08,57.408c2.771,0,5.02-1.64,5.02-3.666c0-2.023-2.25-3.666-5.02-3.666c-2.772,0-5.021,1.642-5.021,3.666
	C10.06,55.769,12.308,57.408,15.08,57.408L15.08,57.408z M15.147,51.172c1.575,0,2.853,1.176,2.853,2.621
	c0,1.448-1.278,2.619-2.853,2.619c-1.573,0-2.849-1.171-2.849-2.619C12.298,52.348,13.574,51.172,15.147,51.172L15.147,51.172z"/>
<polygon style="&st0;" points="35.103,61.192 34.979,61.157 35.103,61.157 35.103,61.192 "/>
<path style="&st0;" d="M1.955,61.273v-1.302H2.62c0.797,0,1.146,0.199,1.146,0.646c0,0.476-0.311,0.657-1.171,0.657H1.955
	L1.955,61.273z M1.955,61.696h1.064c0.56,0,0.732-0.014,1.023-0.09c0.537-0.144,0.866-0.5,0.866-0.953
	c0-0.317-0.157-0.592-0.437-0.8c-0.345-0.253-0.618-0.305-1.445-0.305H0.158v0.423h0.314c0.375,0,0.421,0.049,0.428,0.412
	l0.008,0.181v1.942L0.901,62.69c-0.007,0.359-0.053,0.407-0.428,0.407H0.158v0.421h2.447v-0.421H2.393
	c-0.374,0-0.422-0.044-0.43-0.407l-0.007-0.189V61.696L1.955,61.696z"/>
<path style="&st0;" d="M8.027,63.079h-0.23c-0.376,0-0.422-0.049-0.429-0.407L7.36,62.487v-1.943l0.008-0.18
	C7.375,60,7.421,59.952,7.797,59.952h0.23v-0.423H5.633v0.423h0.244c0.376,0,0.422,0.048,0.429,0.412l0.008,0.18v1.943l-0.008,0.185
	c-0.007,0.365-0.053,0.407-0.429,0.407H5.668v0.423h2.359V63.079L8.027,63.079z"/>
<path style="&st0;" d="M13.178,59.529h-0.623l-0.196,0.423c-0.103-0.076-0.195-0.141-0.283-0.201
	c-0.327-0.212-0.671-0.31-1.161-0.31c-1.391,0-2.375,0.852-2.375,2.061c0,1.265,0.992,2.084,2.498,2.084
	c0.315,0,0.602-0.037,0.852-0.097c0.306-0.07,0.578-0.215,0.796-0.41c0.336-0.298,0.439-0.532,0.493-1.098h-0.623
	c-0.065,0.312-0.095,0.397-0.219,0.596c-0.218,0.34-0.651,0.525-1.196,0.525c-0.915,0-1.383-0.511-1.383-1.538
	c0-1.087,0.453-1.598,1.415-1.598c0.406,0,0.728,0.109,0.992,0.327c0.25,0.21,0.337,0.376,0.429,0.795h0.585V59.529L13.178,59.529z"
	/>
<path style="&st0;" d="M13.965,59.529v1.635h0.555c0-0.046,0-0.09,0-0.125c0-0.721,0.437-1.078,1.312-1.087v2.72
	c-0.007,0.365-0.056,0.407-0.431,0.407h-0.193v0.423h2.341v-0.423h-0.225c-0.383,0-0.429-0.042-0.438-0.407v-2.72
	c0.938,0.025,1.329,0.377,1.337,1.212h0.577v-1.635H13.965L13.965,59.529z"/>
<path style="&st0;" d="M19.347,59.952h0.093c0.374,0,0.42,0.048,0.429,0.412l0.007,0.18v1.388c0,0.491,0.024,0.66,0.142,0.902
	c0.218,0.483,0.922,0.751,1.93,0.751c0.593,0,1.083-0.102,1.452-0.298c0.187-0.109,0.344-0.25,0.437-0.425
	c0.076-0.134,0.118-0.299,0.127-0.47c0-0.053,0-0.208,0-0.46v-1.568c0.007-0.363,0.053-0.412,0.428-0.412h0.164v-0.423h-2.004v0.423
	h0.187c0.373,0,0.421,0.048,0.428,0.412l0.006,0.18v1.388c0,0.574-0.02,0.65-0.187,0.831c-0.163,0.185-0.508,0.298-0.905,0.298
	c-0.399,0-0.783-0.121-0.962-0.298c-0.162-0.162-0.195-0.294-0.195-0.831v-1.388l0.008-0.18c0.009-0.363,0.057-0.412,0.439-0.412
	h0.318v-0.423h-2.341V59.952L19.347,59.952z"/>
<path style="&st0;" d="M26.882,61.212v-1.26h0.83c0.725,0,1.062,0.204,1.062,0.647c0,0.439-0.292,0.613-1.039,0.613H26.882
	L26.882,61.212z M26.882,61.634h0.696c0.196,0,0.437,0.085,0.587,0.193c0.21,0.16,0.25,0.281,0.264,0.863
	c0.023,0.617,0.352,0.895,1.078,0.895c0.727,0,0.999-0.256,0.999-0.937c0-0.066,0-0.129-0.006-0.286h-0.507L30,62.596l0.009,0.058
	c0,0.286-0.07,0.396-0.25,0.396c-0.157,0-0.233-0.079-0.252-0.246l-0.023-0.397c-0.023-0.375-0.171-0.615-0.467-0.754
	c-0.15-0.072-0.243-0.094-0.557-0.155c0.455-0.065,0.617-0.106,0.853-0.202c0.414-0.159,0.618-0.416,0.618-0.77
	c0-0.34-0.21-0.646-0.578-0.821c-0.289-0.15-0.456-0.176-1.058-0.176h-3.191v0.423h0.296c0.375,0,0.421,0.048,0.43,0.412l0.007,0.18
	v1.943l-0.007,0.185c-0.009,0.358-0.056,0.407-0.43,0.407h-0.296v0.423h2.394v-0.423h-0.176c-0.375,0-0.423-0.049-0.431-0.407
	l-0.009-0.185V61.634L26.882,61.634z"/>
<path style="&st0;" d="M35.876,59.529h-4.787v0.423h0.164c0.312,0,0.398,0.055,0.423,0.245l0.007,0.208v2.267
	c-0.007,0.365-0.056,0.407-0.431,0.407h-0.146v0.423h4.769v-1.591h-0.592c0,0.108-0.007,0.243-0.007,0.282
	c0,0.194-0.04,0.36-0.196,0.551c-0.217,0.263-0.447,0.334-1.05,0.33h-1.293v-1.422h0.329c0.569,0,0.74,0.199,0.74,0.849h0.548
	v-2.028h-0.548v0.071c0,0.506-0.181,0.71-0.641,0.71c-0.023,0-0.116,0-0.273-0.006h-0.155v-1.295h1.303
	c0.585,0,0.876,0.108,1.047,0.384c0.139,0.22,0.197,0.449,0.203,0.81h0.586V59.529L35.876,59.529z"/>
<path style="&st0;" d="M41.029,59.529h-0.472L40.33,59.89c-0.111-0.071-0.209-0.132-0.293-0.185
	c-0.321-0.176-0.721-0.264-1.221-0.264c-1.154,0-1.883,0.472-1.883,1.221c0,0.199,0.062,0.388,0.19,0.55
	c0.21,0.289,0.516,0.417,1.279,0.534c0.772,0.121,1.251,0.211,1.561,0.29c0.346,0.087,0.525,0.256,0.525,0.483
	c0,0.355-0.392,0.564-1.064,0.564c-0.483,0-0.943-0.132-1.288-0.363c-0.345-0.238-0.458-0.428-0.562-0.911h-0.54v1.693h0.54
	l0.196-0.423c0.109,0.083,0.195,0.148,0.274,0.19c0.335,0.208,0.821,0.317,1.408,0.317c1.159,0,1.894-0.472,1.894-1.228
	c0-0.449-0.263-0.784-0.811-1.013c-0.359-0.15-0.664-0.222-1.531-0.347c-0.913-0.127-1.13-0.231-1.13-0.53
	c0-0.334,0.368-0.543,0.969-0.543c0.911,0,1.514,0.405,1.663,1.122h0.524V59.529L41.029,59.529z"/>
<path d="M8.967,27.747c-0.98,1.994-0.689,2.141,0,2.901c0.071,0.1,0.101,0.298,0.082,0.669v12.343c0,0-2.404,1.226-2.447,1.226
	L6.61,15.935l2.439-1.105l0.006,11.903C9.074,27.364,9.007,27.672,8.967,27.747L8.967,27.747z"/>
<polygon points="3.4,17.388 5.668,16.366 5.668,45.354 3.392,46.427 3.4,17.388 "/>
<polygon points="0,18.97 2.353,17.924 2.353,46.846 0,48.004 0,18.97 "/>
<path d="M39.866,13.588c0.032,3.448,0.712,15.084,0.687,15.29l-1.452,0.686c0,0,0.414-7.605,0.552-15.167
	c0.098-3.15-0.765-13.711-0.765-13.711L40.34,0C40.34,0,39.847,12.262,39.866,13.588L39.866,13.588z"/>
<path d="M36.619,15.107c-0.125,1.776,0.605,15.354,0.605,15.354c-0.462,0.195-1.406,0.658-1.406,0.658s0.42-14.336,0.416-15.403
	c-0.145-3.403-0.932-13.321-0.932-13.321l1.878-0.9C37.181,1.495,36.716,13.736,36.619,15.107L36.619,15.107z"/>
<path d="M33.076,18.973C33.145,21.609,33.885,32,33.885,32l-1.575,0.766c0,0,0.324-10.955,0.34-14.646
	c-0.072-3.016-0.944-14.018-0.944-14.018c0.615-0.383,1.272-0.622,1.921-0.897C33.628,3.205,32.987,15.97,33.076,18.973
	L33.076,18.973z"/>
<path d="M29.535,20.388c-0.048,1.422,0.888,13.23,0.888,13.23s-1.788,0.84-1.831,0.9c0-0.425,0.437-12.354,0.437-14.587
	c0-1.984-0.906-14.164-0.906-14.164l1.966-0.936C30.088,4.831,29.586,17.392,29.535,20.388L29.535,20.388z"/>
<path d="M25.903,22.212c0.025,2.595,0.891,13.162,0.891,13.162l-1.922,0.898h-0.034c0,0,0.534-12.836,0.46-14.825
	c0.176-1.973-1.046-13.806-1.046-13.806l2.246-1.101C26.498,6.736,25.776,17.798,25.903,22.212L25.903,22.212z"/>
<path d="M22.31,21.917c-0.035,5.481,0.988,15.077,0.988,15.077l-2.575,1.214c0,0,1.095-11.98,0.946-14.927
	c0.046-3.452-1.139-13.553-1.146-13.882c0.816-0.455,1.672-0.811,2.516-1.191C23.038,8.207,22.275,19.271,22.31,21.917L22.31,21.917
	z"/>
<path d="M19.022,16.68c-0.662,5.919-0.763,12.293,0.355,18.082l0.414,3.895L17.06,39.94l-0.047,0.044c0,0-0.006-4.869,0-5.038
	c0.655-5.095,1.273-11.985-0.071-17.91V11.02l2.775-1.282L19.022,16.68L19.022,16.68z"/>
<path d="M16.125,17.137c-1.14,6.912-1.466,12.17,0,17.777V40.4l-2.672,1.237l0.019-9.104c1.043-4.35,0.935-6.818,0.116-11.277
	v-8.642l2.55-1.148L16.125,17.137L16.125,17.137z"/>
<path d="M12.521,21.71c-0.761,3.862-1.342,7.307-0.073,10.861l-0.004,9.601l-2.571,1.2L9.868,31.083
	c-0.019-0.378,0.042-0.74,0.076-0.761c0.951-1.288,1.062-1.92,0.194-2.966c-0.145-0.191-0.277-0.246-0.266-0.479V14.385l2.611-1.225
	h0.044L12.521,21.71L12.521,21.71z"/>
<path style="&st0;" d="M41.894,59.575v0.267h0.458v1.348h0.41v-1.348h0.447v-0.267H41.894L41.894,59.575z M43.376,59.575v1.615
	h0.384v-0.83c0-0.107-0.014-0.303-0.029-0.474v-0.035h0.013l0.005,0.028l0.06,0.236l0.083,0.284l0.238,0.792h0.317l0.236-0.812
	l0.025-0.081c0.006-0.035,0.032-0.115,0.067-0.24c0.033-0.127,0.037-0.139,0.051-0.206h0.016l-0.002,0.028l-0.016,0.164
	l-0.012,0.204v0.943h0.384v-1.615h-0.604l-0.165,0.581l-0.016,0.046c-0.026,0.095-0.072,0.306-0.095,0.458
	c-0.014,0.06-0.014,0.072-0.016,0.118h-0.014c-0.003-0.044-0.003-0.055-0.012-0.095c-0.005-0.047-0.019-0.12-0.04-0.21
	c-0.033-0.146-0.06-0.257-0.083-0.338l-0.023-0.074l-0.141-0.486H43.376L43.376,59.575z"/>
<path style="&st0;" d="M1.758,66.173H1.487c-0.023,0.19-0.122,0.289-0.288,0.289c-0.204,0-0.33-0.162-0.33-0.417
	c0-0.256,0.13-0.417,0.332-0.417c0.152,0,0.25,0.079,0.279,0.223h0.266c-0.015-0.257-0.246-0.449-0.542-0.449
	c-0.358,0-0.605,0.264-0.605,0.641c0,0.389,0.239,0.645,0.599,0.645C1.521,66.689,1.734,66.493,1.758,66.173L1.758,66.173z
	 M1.174,65.2c0.462,0,0.838,0.384,0.838,0.865c0,0.481-0.376,0.866-0.841,0.866c-0.465,0-0.843-0.387-0.843-0.868
	C0.328,65.584,0.707,65.2,1.174,65.2L1.174,65.2z M1.179,64.992c-0.587,0-1.059,0.479-1.059,1.071c0,0.594,0.475,1.068,1.059,1.068
	c0.583,0,1.054-0.474,1.054-1.068C2.235,65.47,1.762,64.992,1.179,64.992L1.179,64.992z"/>
<path style="&st0;" d="M8.601,66.453v0.038c0,0.437,0.172,0.633,0.555,0.633c0.389,0,0.589-0.206,0.589-0.604
	c0-0.287-0.102-0.442-0.368-0.553l-0.183-0.076c-0.209-0.087-0.282-0.175-0.282-0.354c0-0.183,0.092-0.287,0.257-0.287
	c0.167,0,0.241,0.097,0.246,0.333h0.281v-0.019c0-0.373-0.181-0.557-0.53-0.557c-0.345,0-0.54,0.208-0.54,0.576
	c0,0.282,0.113,0.449,0.385,0.557l0.187,0.079c0.185,0.076,0.251,0.168,0.251,0.346c0,0.204-0.104,0.317-0.288,0.317
	c-0.188,0-0.271-0.125-0.271-0.4v-0.03H8.601L8.601,66.453z"/>
<path style="&st0;" d="M10.19,66.194c0-0.534,0.066-0.717,0.267-0.717c0.2,0,0.264,0.178,0.264,0.727c0,0.522-0.072,0.71-0.269,0.71
	C10.258,66.914,10.19,66.724,10.19,66.194L10.19,66.194z M9.931,66.191c0,0.671,0.15,0.928,0.531,0.928
	c0.219,0,0.383-0.113,0.45-0.329c0.046-0.15,0.071-0.351,0.071-0.631c0-0.285-0.024-0.463-0.083-0.608
	c-0.074-0.19-0.223-0.292-0.438-0.292c-0.213,0-0.356,0.093-0.438,0.278c-0.031,0.069-0.052,0.15-0.064,0.229
	C9.942,65.88,9.931,66.035,9.931,66.191L9.931,66.191z"/>
<path style="&st0;" d="M11.213,65.297v1.79h0.236l-0.002-0.995c0-0.187-0.008-0.37-0.024-0.511h0.012
	c0.018,0.121,0.084,0.359,0.151,0.546c0.011,0.033,0.018,0.053,0.02,0.058l0.309,0.902h0.303v-1.79h-0.235l0.002,1.015
	c0,0.166,0.008,0.376,0.021,0.485h-0.01c-0.036-0.196-0.099-0.407-0.17-0.622l-0.309-0.878H11.213L11.213,65.297z"/>
<path style="&st0;" d="M12.351,65.297l0.414,1.086v0.704h0.248v-0.704l0.419-1.086h-0.269l-0.198,0.557l-0.013,0.044L12.924,66
	c-0.014,0.051-0.022,0.069-0.029,0.125h-0.002c-0.008-0.044-0.01-0.051-0.028-0.125c-0.027-0.1-0.032-0.116-0.039-0.142
	l-0.195-0.561H12.351L12.351,65.297z"/>
<path style="&st0;" d="M14.412,65.288h0.142c0.257,0,0.354,0.094,0.354,0.353c0,0.254-0.094,0.352-0.332,0.352h-0.163V65.288
	L14.412,65.288z M14.127,65.043v2.044h0.288v-0.842h0.219c0.372,0,0.566-0.206,0.566-0.604c0-0.201-0.053-0.36-0.155-0.467
	c-0.087-0.097-0.21-0.131-0.429-0.131H14.127L14.127,65.043z"/>
<polygon points="15.386,65.297 15.641,65.297 15.641,67.087 15.386,67.087 15.386,65.297 "/>
<path style="&st0;" d="M16.607,66.446c-0.006,0.315-0.083,0.465-0.247,0.465c-0.112,0-0.195-0.083-0.226-0.231
	c-0.02-0.116-0.033-0.269-0.033-0.469c0-0.549,0.066-0.731,0.261-0.731c0.155,0,0.231,0.12,0.231,0.37v0.005h0.248
	c0-0.397-0.151-0.592-0.479-0.592c-0.187,0-0.33,0.083-0.416,0.242c-0.076,0.139-0.105,0.347-0.105,0.701
	c0,0.303,0.021,0.467,0.075,0.613c0.082,0.213,0.213,0.305,0.444,0.305c0.174,0,0.288-0.051,0.367-0.166
	c0.083-0.123,0.129-0.292,0.129-0.486v-0.025H16.607L16.607,66.446z"/>
<polygon style="&st0;" points="16.929,65.297 16.929,65.54 17.312,65.54 17.312,67.087 17.561,67.087 17.561,65.54 17.937,65.54 
	17.937,65.297 16.929,65.297 "/>
<path style="&st0;" d="M18.059,65.297v1.239c0,0.201,0.029,0.316,0.103,0.423c0.08,0.109,0.203,0.16,0.376,0.16
	c0.183,0,0.31-0.056,0.395-0.183c0.072-0.106,0.095-0.22,0.095-0.453v-1.186h-0.249v1.211c0,0.296-0.064,0.405-0.239,0.405
	c-0.17,0-0.228-0.104-0.228-0.41v-1.207H18.059L18.059,65.297z"/>
<path style="&st0;" d="M19.52,65.514h0.172c0.197,0,0.281,0.083,0.281,0.284c0,0.203-0.089,0.297-0.285,0.297H19.52V65.514
	L19.52,65.514z M19.268,65.297v1.79h0.254v-0.785h0.159c0.234,0,0.271,0.051,0.284,0.372l0.004,0.153
	c0.005,0.139,0.016,0.213,0.042,0.26h0.288v-0.01c-0.057-0.037-0.068-0.088-0.074-0.275c-0.002-0.037-0.006-0.087-0.008-0.148
	c-0.008-0.176-0.015-0.233-0.045-0.307c-0.032-0.081-0.096-0.127-0.199-0.148c0.164-0.048,0.258-0.199,0.258-0.433
	c0-0.15-0.042-0.273-0.125-0.358c-0.071-0.081-0.167-0.11-0.357-0.11H19.268L19.268,65.297z"/>
<polygon style="&st0;" points="20.48,65.297 20.48,67.087 21.351,67.087 21.351,66.844 20.731,66.844 20.731,66.271 21.296,66.271 
	21.296,66.035 20.731,66.035 20.731,65.535 21.329,65.535 21.329,65.297 20.48,65.297 "/>
<path style="&st0;" d="M21.488,66.532v0.032c0,0.384,0.149,0.556,0.485,0.556s0.515-0.18,0.515-0.527
	c0-0.252-0.09-0.389-0.321-0.483l-0.16-0.07c-0.185-0.076-0.246-0.153-0.246-0.308c0-0.159,0.08-0.251,0.223-0.251
	c0.146,0,0.21,0.088,0.215,0.293h0.245v-0.018c0-0.323-0.157-0.486-0.462-0.486c-0.301,0-0.474,0.181-0.474,0.504
	c0,0.246,0.102,0.394,0.34,0.486l0.162,0.069c0.162,0.067,0.22,0.148,0.22,0.301c0,0.178-0.091,0.282-0.25,0.282
	c-0.167,0-0.243-0.111-0.243-0.354v-0.026H21.488L21.488,66.532z"/>
<polygon style="&st0;" points="23.293,65.043 23.293,67.087 24.292,67.087 24.292,66.807 23.579,66.807 23.579,66.155 
	24.225,66.155 24.225,65.884 23.579,65.884 23.579,65.315 24.264,65.315 24.264,65.043 23.293,65.043 "/>
<path style="&st0;" d="M24.498,65.297v1.79h0.236l-0.002-0.995c0-0.187-0.007-0.37-0.023-0.511h0.012
	c0.016,0.121,0.083,0.359,0.15,0.546c0.012,0.033,0.019,0.053,0.021,0.058l0.308,0.902h0.303v-1.79h-0.236l0.002,1.015
	c0,0.166,0.009,0.376,0.021,0.485h-0.009c-0.04-0.196-0.097-0.407-0.168-0.622L24.8,65.297H24.498L24.498,65.297z"/>
<polygon style="&st0;" points="25.652,65.297 25.652,65.54 26.036,65.54 26.036,67.087 26.283,67.087 26.283,65.54 26.66,65.54 
	26.66,65.297 25.652,65.297 "/>
<polygon style="&st0;" points="26.811,65.297 26.811,67.087 27.684,67.087 27.684,66.844 27.063,66.844 27.063,66.271 
	27.627,66.271 27.627,66.035 27.063,66.035 27.063,65.535 27.66,65.535 27.66,65.297 26.811,65.297 "/>
<path style="&st0;" d="M28.117,65.514h0.174c0.198,0,0.283,0.083,0.283,0.284c0,0.203-0.092,0.297-0.287,0.297h-0.171V65.514
	L28.117,65.514z M27.87,65.297v1.79h0.252v-0.785h0.157c0.236,0,0.271,0.051,0.285,0.372l0.004,0.153
	c0.005,0.139,0.016,0.213,0.044,0.26h0.287v-0.01c-0.058-0.037-0.072-0.088-0.077-0.275c-0.002-0.037-0.004-0.087-0.007-0.148
	c-0.008-0.176-0.014-0.233-0.043-0.307c-0.03-0.081-0.097-0.127-0.201-0.148c0.166-0.048,0.256-0.199,0.256-0.433
	c0-0.15-0.041-0.273-0.12-0.358c-0.075-0.081-0.168-0.11-0.359-0.11H27.87L27.87,65.297z"/>
<polygon style="&st0;" points="28.889,65.297 28.889,65.54 29.273,65.54 29.273,67.087 29.525,67.087 29.525,65.54 29.898,65.54 
	29.898,65.297 28.889,65.297 "/>
<path style="&st0;" d="M30.333,65.491h0.002c0.007,0.069,0.012,0.097,0.03,0.185l0.025,0.142l0.009,0.065l0.118,0.534h-0.378
	l0.122-0.542c0.005-0.016,0.007-0.034,0.011-0.06c0.014-0.058,0.024-0.106,0.029-0.144C30.323,65.568,30.327,65.551,30.333,65.491
	L30.333,65.491z M30.173,65.297l-0.438,1.79h0.262l0.104-0.442h0.455l0.103,0.442h0.266l-0.426-1.79H30.173L30.173,65.297z"/>
<polygon points="31.026,65.297 31.278,65.297 31.278,67.087 31.026,67.087 31.026,65.297 "/>
<path style="&st0;" d="M31.538,65.297v1.79h0.239l-0.003-0.995c0-0.187-0.012-0.37-0.023-0.511h0.011
	c0.017,0.121,0.084,0.359,0.151,0.546c0.009,0.033,0.018,0.053,0.021,0.058l0.308,0.902h0.305v-1.79h-0.238l0.002,1.015
	c0,0.166,0.007,0.376,0.021,0.485h-0.009c-0.04-0.196-0.097-0.407-0.173-0.622l-0.306-0.878H31.538L31.538,65.297z"/>
<path style="&st0;" d="M32.813,65.297v1.79h0.237l-0.002-1.045c-0.003-0.132-0.01-0.366-0.02-0.491v-0.039h0.014l0.005,0.032
	l0.051,0.287l0.057,0.25l0.01,0.063l0.213,0.944h0.213l0.205-0.946l0.023-0.102c0.037-0.173,0.085-0.433,0.104-0.527h0.009v0.035
	l-0.007,0.15l-0.007,0.275l-0.001,1.115h0.238v-1.79h-0.389l-0.167,0.781l-0.011,0.058c-0.021,0.097-0.061,0.314-0.082,0.467
	c-0.009,0.067-0.012,0.09-0.016,0.152l-0.007,0.003c-0.003-0.049-0.003-0.07-0.004-0.109c-0.01-0.06-0.024-0.143-0.042-0.25
	c-0.025-0.152-0.051-0.275-0.072-0.367l-0.025-0.114l-0.14-0.622H32.813L32.813,65.297z"/>
<polygon style="&st0;" points="34.428,65.297 34.428,67.087 35.303,67.087 35.303,66.844 34.68,66.844 34.68,66.271 35.246,66.271 
	35.246,66.035 34.68,66.035 34.68,65.535 35.277,65.535 35.277,65.297 34.428,65.297 "/>
<path style="&st0;" d="M35.5,65.297v1.79h0.236l-0.002-0.995c0-0.187-0.007-0.37-0.023-0.511h0.011
	c0.019,0.121,0.086,0.359,0.151,0.546c0.013,0.033,0.021,0.053,0.021,0.058l0.31,0.902h0.303v-1.79H36.27l0.002,1.015
	c0,0.166,0.007,0.376,0.018,0.485h-0.009c-0.034-0.196-0.097-0.407-0.17-0.622l-0.308-0.878H35.5L35.5,65.297z"/>
<polygon style="&st0;" points="36.654,65.297 36.654,65.54 37.038,65.54 37.038,67.087 37.29,67.087 37.29,65.54 37.662,65.54 
	37.662,65.297 36.654,65.297 "/>
<polygon points="38.376,65.043 38.665,65.043 38.665,67.087 38.376,67.087 38.376,65.043 "/>
<path style="&st0;" d="M38.94,65.297v1.79h0.24l-0.002-0.995c0-0.187-0.011-0.37-0.027-0.511h0.011
	c0.018,0.121,0.086,0.359,0.15,0.546c0.015,0.033,0.021,0.053,0.026,0.058l0.305,0.902h0.305v-1.79h-0.241l0.005,1.015
	c0,0.166,0.01,0.376,0.019,0.485h-0.007c-0.04-0.196-0.098-0.407-0.171-0.622l-0.305-0.878H38.94L38.94,65.297z"/>
<path style="&st0;" d="M40.932,66.446c-0.007,0.315-0.083,0.465-0.247,0.465c-0.114,0-0.197-0.083-0.226-0.231
	c-0.022-0.116-0.036-0.269-0.036-0.469c0-0.549,0.068-0.731,0.265-0.731c0.152,0,0.231,0.12,0.231,0.37v0.005h0.247
	c0-0.397-0.152-0.592-0.478-0.592c-0.188,0-0.332,0.083-0.417,0.242c-0.074,0.139-0.106,0.347-0.106,0.701
	c0,0.303,0.021,0.467,0.075,0.613c0.083,0.213,0.215,0.305,0.446,0.305c0.173,0,0.287-0.051,0.368-0.166
	c0.081-0.123,0.127-0.292,0.127-0.486v-0.025H40.932L40.932,66.446z"/>
<polygon points="41.253,66.761 41.503,66.761 41.503,67.083 41.253,67.083 41.253,66.761 "/>
<path d="M3.877,66.872H3.075l0.142-0.183l0.206-0.264c0.059-0.076,0.121-0.157,0.18-0.25c0.185-0.276,0.227-0.386,0.227-0.604
	c0-0.345-0.178-0.532-0.506-0.532c-0.17,0-0.286,0.037-0.381,0.13c-0.096,0.094-0.13,0.208-0.139,0.427h0.272
	c0.013-0.263,0.07-0.351,0.234-0.351c0.167,0,0.256,0.104,0.256,0.298c0,0.193-0.059,0.336-0.252,0.613l-0.251,0.347l-0.188,0.267
	l-0.072,0.102v0.226h1.075V66.872L3.877,66.872z"/>
<path style="&st0;" d="M4.322,65.759c0-0.404,0.057-0.513,0.272-0.513c0.208,0,0.272,0.115,0.272,0.488v0.671
	c0,0.402-0.056,0.509-0.28,0.509c-0.214,0-0.265-0.1-0.265-0.527V65.759L4.322,65.759z M5.139,65.734
	c0-0.518-0.141-0.694-0.552-0.694c-0.207,0-0.349,0.06-0.435,0.178c-0.077,0.116-0.1,0.231-0.1,0.555v0.613
	c0,0.373,0.009,0.416,0.098,0.55c0.082,0.123,0.238,0.183,0.457,0.183c0.199,0,0.348-0.062,0.438-0.192
	c0.086-0.122,0.094-0.153,0.094-0.506V65.734L5.139,65.734z"/>
<path style="&st0;" d="M5.665,65.759c0-0.404,0.06-0.513,0.276-0.513c0.207,0,0.272,0.115,0.272,0.488v0.671
	c0,0.402-0.059,0.509-0.283,0.509c-0.213,0-0.266-0.1-0.266-0.527V65.759L5.665,65.759z M6.483,65.734
	c0-0.518-0.142-0.694-0.552-0.694c-0.204,0-0.351,0.06-0.432,0.178c-0.079,0.116-0.102,0.231-0.102,0.555v0.613
	c0,0.373,0.01,0.416,0.096,0.55c0.082,0.123,0.24,0.183,0.46,0.183c0.198,0,0.347-0.062,0.437-0.192
	c0.088-0.122,0.092-0.153,0.092-0.506V65.734L6.483,65.734z"/>
<path style="&st0;" d="M7.013,65.759c0-0.404,0.055-0.513,0.272-0.513c0.209,0,0.273,0.115,0.273,0.488v0.671
	c0,0.402-0.057,0.509-0.281,0.509c-0.212,0-0.264-0.1-0.264-0.527V65.759L7.013,65.759z M7.831,65.734
	c0-0.518-0.141-0.694-0.554-0.694c-0.205,0-0.349,0.06-0.434,0.178c-0.08,0.116-0.101,0.231-0.101,0.555v0.613
	c0,0.373,0.012,0.416,0.097,0.55c0.081,0.123,0.237,0.183,0.458,0.183c0.202,0,0.347-0.062,0.438-0.192
	c0.088-0.122,0.096-0.153,0.096-0.506V65.734L7.831,65.734z"/>
</svg>
