<?xml version="1.0" encoding="utf-8"?>
<!-- Generator: Adobe Illustrator 16.2.1, SVG Export Plug-In . SVG Version: 6.00 Build 0)  -->
<!DOCTYPE svg PUBLIC "-//W3C//DTD SVG 1.1//EN" "http://www.w3.org/Graphics/SVG/1.1/DTD/svg11.dtd">
<svg version="1.1" id="Layer_1" xmlns="http://www.w3.org/2000/svg" xmlns:xlink="http://www.w3.org/1999/xlink" x="0px" y="0px"
	 width="121.085px" height="23.021px" viewBox="0 0 121.085 23.021" style="enable-background:new 0 0 121.085 23.021;"
	 xml:space="preserve">
<path d="M2.176,21.468L5.628,0.712c0,0,0.302-0.561,0.69,0c0.389,0.561,8.069,16.57,8.069,16.57s0.216,0.389,0.432-0.086
	c0.216-0.475,7.896-16.57,7.896-16.57s0.647-0.475,0.777,0.216s2.935,19.504,2.935,19.504s0.216,1.554,1.51,1.855l1.079,0.216
	c0,0,0.561,0.216,0.086,0.432H21.68c0,0-0.302-0.029-0.302-0.259c0,0-0.029-0.287,0.259-0.287s1.237,0.23,1.266-0.749
	c0.028-0.978-1.784-13.175-1.784-13.175s-0.086-0.374-0.259,0.029C20.688,8.81,13.899,22.82,13.899,22.82s-0.288,0.316-0.518-0.029
	S6.448,8.838,6.448,8.838S6.16,8.494,6.103,8.868C6.045,9.241,4.636,21.18,4.636,21.18s-0.288,1.064,1.726,1.266
	c0,0,0.719-0.058,0.748,0.172c0.028,0.23,0,0.374-0.375,0.345H0.234c0,0-0.259-0.057-0.23-0.345c0,0-0.058-0.259,0.259-0.287
	c0.316-0.029,1.036-0.058,1.036-0.058S1.932,22.331,2.176,21.468z M91.859,22.273c0,0-0.719,0.029-1.035,0.058
	c-0.316,0.028-0.259,0.287-0.259,0.287c-0.029,0.288,0.23,0.345,0.23,0.345h6.501c0.374,0.029,0.403-0.115,0.374-0.345
	c-0.029-0.23-0.748-0.172-0.748-0.172c-2.014-0.202-1.726-1.266-1.726-1.266s1.41-11.939,1.467-12.312
	c0.058-0.374,0.345-0.029,0.345-0.029s6.703,13.607,6.934,13.953c0.23,0.345,0.518,0.029,0.518,0.029s6.789-14.01,6.962-14.413
	c0.172-0.403,0.259-0.029,0.259-0.029s1.812,12.198,1.784,13.175c-0.029,0.979-0.978,0.749-1.266,0.749s-0.259,0.287-0.259,0.287
	c0,0.23,0.302,0.259,0.302,0.259h7.422c0.475-0.216-0.086-0.432-0.086-0.432l-1.079-0.216c-1.294-0.302-1.51-1.855-1.51-1.855
	s-2.805-18.814-2.934-19.504c-0.13-0.69-0.777-0.216-0.777-0.216s-7.681,16.095-7.897,16.57c-0.216,0.475-0.432,0.086-0.432,0.086
	s-7.681-16.009-8.069-16.57c-0.389-0.561-0.691,0-0.691,0l-3.452,20.756C92.492,22.331,91.859,22.273,91.859,22.273z M33.59,20.777
	c0,0-0.345,1.165-1.683,1.51l-0.819,0.086c0,0-0.259-0.043-0.302,0.172c0,0-0.13,0.345,0.259,0.345h6.343
	c0,0,0.446,0.043,0.446-0.244c0,0,0.086-0.316-0.288-0.316h-1.007c0,0-1.007,0-0.748-1.007c0.259-1.007,2.042-5.725,2.042-5.725
	s0.115-0.288,0.46-0.288h6.012c0,0,0.403-0.115,0.518,0.259l2.215,5.725c0,0,0.403,0.806-0.46,0.949
	c-0.863,0.144-1.093,0.202-1.093,0.202s-0.173,0.029-0.173,0.202c0,0-0.058,0.287,0.173,0.287h7.623c0,0,0.288-0.058,0.317-0.345
	c0,0-0.029-0.288-0.346-0.258c0,0-1.927,0.144-3.049-2.848L42.494,0.755c0,0-0.374-0.46-0.719,0.029
	C41.43,1.272,33.59,20.777,33.59,20.777z M41.544,6.71l2.56,6.904c0.116,0.316-0.229,0.345-0.229,0.345s-4.718,0.029-5.063,0
	c-0.345-0.028-0.144-0.432-0.144-0.432l2.475-6.789C41.343,6.221,41.544,6.71,41.544,6.71z M53.828,1.417
	c0,0.288,0.432,0.259,0.432,0.259c1.87-0.058,3.165,1.582,3.165,1.582s4.977,7.767,5.552,8.515s0.144,1.093,0.144,1.093
	s-5.006,7.105-5.869,8.199c-0.863,1.093-1.985,1.352-2.273,1.352s-0.345,0.288-0.345,0.288c0,0.201,0.403,0.172,0.403,0.172
	c0.546-0.086,2.042-0.115,2.042-0.115c0.662-0.086,3.481,0.201,3.97,0.144c0.489-0.058,0.288-0.259,0.288-0.259
	c-0.029-0.23-0.719-0.23-0.719-0.23c-1.496-0.202-0.863-1.294-0.863-1.294s4.114-6.444,4.401-6.875c0.288-0.432,0.403,0,0.403,0
	s3.854,6.07,4.517,7.105c0.662,1.036-0.777,0.921-1.064,0.949c-0.288,0.029-0.432,0.173-0.46,0.288
	c-0.029,0.116,0,0.317,0.288,0.288s2.618-0.115,3.193-0.144s4.977,0.259,4.977,0.259c0.432,0,0.403-0.144,0.432-0.287
	c0.028-0.144-0.806-0.23-0.806-0.23c-1.87-0.259-2.589-1.583-2.589-1.583s-6.128-9.004-6.444-9.522
	c-0.316-0.518-0.115-0.748-0.115-0.748s5.955-8.112,6.157-8.515c0.201-0.403,0.719-0.288,0.719-0.288s1.15-0.029,1.438-0.115
	c0.288-0.086,0.23-0.23,0.23-0.23c-0.029-0.317-0.633-0.288-0.633-0.288s-2.244,0-2.647,0.058c-0.403,0.058-3.308-0.086-3.308-0.086
	c-0.259,0.029-0.345,0.259-0.345,0.259c0,0.259,0.288,0.288,0.288,0.288s0.374-0.058,1.093,0.115
	c0.719,0.172,0.432,0.949,0.432,0.949s-4.057,6.07-4.315,6.473c-0.259,0.403-0.489-0.057-0.489-0.057s-3.97-6.473-4.114-6.933
	c-0.144-0.46,0.259-0.518,0.259-0.518h0.978c0.374,0,0.259-0.374,0.259-0.374c0-0.23-0.317-0.172-0.317-0.172H54.26
	C54.001,1.215,53.828,1.129,53.828,1.417z M78.77,1.733l1.179,0.058C81.244,1.848,81.1,3.805,81.1,3.805s-0.086,16.713-0.23,17.663
	c-0.144,0.949-1.467,0.92-1.784,0.92s-0.518,0.029-0.546,0.259s0.172,0.345,0.46,0.345c0.288,0,1.928-0.029,3.337-0.115
	c1.41-0.086,4.833,0.144,5.235,0.144s0.317-0.316,0.317-0.316c0-0.23-0.518-0.23-0.518-0.23l-1.582-0.086
	c-1.122-0.173-1.093-2.244-1.093-2.244s-0.144-14.988,0-16.829c0.144-1.841,1.553-1.496,1.956-1.554s0.575-0.144,0.431-0.432
	c-0.143-0.288-1.179-0.144-1.179-0.144C81.791,1.474,78.799,1.1,78.799,1.1s-0.23,0-0.23,0.259
	C78.569,1.359,78.482,1.733,78.77,1.733z"/>
<g>
	<path d="M119.913,0c0.658,0,1.172,0.528,1.172,1.182c0,0.638-0.515,1.163-1.172,1.163c-0.654,0-1.172-0.525-1.172-1.163
		C118.741,0.528,119.259,0,119.913,0z M119.913,2.193c0.551,0,0.983-0.478,0.983-1.012c0-0.554-0.429-1.03-0.983-1.03
		c-0.55,0-0.982,0.48-0.982,1.03C118.931,1.716,119.366,2.193,119.913,2.193z M119.363,1.739c0.145-0.02,0.171-0.016,0.171-0.106
		V0.744c0-0.155-0.022-0.168-0.164-0.174V0.525h0.599c0.206,0,0.396,0.097,0.396,0.312c0,0.174-0.113,0.303-0.251,0.348l0.223,0.374
		c0.077,0.132,0.112,0.18,0.203,0.18v0.045h-0.215c-0.11,0-0.194-0.235-0.41-0.558h-0.167v0.406c0,0.09,0.026,0.086,0.171,0.106
		v0.045h-0.554V1.739z M119.746,1.163h0.152c0.158,0,0.229-0.122,0.229-0.309c0-0.2-0.109-0.264-0.235-0.264h-0.145V1.163z"/>
</g>
</svg>
