<?xml version="1.0" encoding="utf-8"?>
<!-- Generator: Adobe Illustrator 16.2.1, SVG Export Plug-In . SVG Version: 6.00 Build 0)  -->
<!DOCTYPE svg PUBLIC "-//W3C//DTD SVG 1.1//EN" "http://www.w3.org/Graphics/SVG/1.1/DTD/svg11.dtd" [
	<!ENTITY st0 "fill:#F15B30;">
	<!ENTITY st1 "fill:#231F20;">
	<!ENTITY st2 "fill:#FFFFFF;">
	<!ENTITY st3 "fill:#0374BA;">
	<!ENTITY st4 "fill:#0D0E18;">
]>
<svg version="1.1" id="Layer_1" xmlns="http://www.w3.org/2000/svg" xmlns:xlink="http://www.w3.org/1999/xlink" x="0px" y="0px"
	 width="106.506px" height="33.896px" viewBox="0 0 106.506 33.896" style="enable-background:new 0 0 106.506 33.896;"
	 xml:space="preserve">
<g>
	<g>
		<rect style="&st0;" width="33.895" height="33.896"/>
		<rect x="33.895" style="&st4;" width="33.898" height="33.896"/>
		<rect x="67.793" style="&st3;" width="33.896" height="33.896"/>
		<path style="&st2;" d="M20.567,25.596V15.594c0-1.477-0.283-2.554-0.852-3.233c-0.569-0.679-1.496-1.018-2.783-1.018
			c-0.597,0-1.232,0.167-1.91,0.501c-0.675,0.334-1.204,0.749-1.581,1.244v12.507H9.393V8.219h2.918l0.746,1.62
			c1.102-1.274,2.73-1.913,4.881-1.913c2.063,0,3.693,0.618,4.888,1.854c1.195,1.238,1.792,2.961,1.792,5.175v10.641H20.567z"/>
		<path style="&st2;" d="M49.62,11.392c1.867,0,3.204,0.419,4.013,1.253c0.808,0.836,1.21,2.278,1.21,4.326
			c0,1.92-0.405,3.325-1.22,4.215c-0.813,0.889-2.152,1.333-4.018,1.333c-0.98,0-1.838-0.296-2.57-0.889v-9.106
			C47.79,11.77,48.651,11.392,49.62,11.392 M50.525,25.938c2.649,0,4.738-0.768,6.269-2.302c1.533-1.535,2.296-3.723,2.296-6.565
			c0-6.095-2.768-9.144-8.306-9.144c-1.481,0-2.731,0.487-3.749,1.46V8.218h-4.05v24.161h4.05v-7.205
			C48.083,25.682,49.247,25.938,50.525,25.938"/>
		<path style="&st2;" d="M89.225,12.026c-0.721-0.454-1.509-0.683-2.369-0.683c-0.936,0-1.768,0.426-2.492,1.277
			c-0.728,0.852-1.091,1.89-1.091,3.118v9.858h-4.052V8.219h4.052v1.66c1.129-1.301,2.63-1.953,4.502-1.953
			c1.376,0,2.431,0.211,3.161,0.632L89.225,12.026z"/>
		<path style="&st1;" d="M106.506,1.832c0,1.025-0.793,1.826-1.823,1.826c-1.032,0-1.827-0.801-1.827-1.826s0.795-1.826,1.827-1.826
			C105.713,0.006,106.506,0.806,106.506,1.832 M103.143,1.832c0,0.873,0.657,1.564,1.541,1.564c0.881,0,1.538-0.691,1.538-1.564
			c0-0.875-0.657-1.564-1.538-1.564C103.8,0.267,103.143,0.957,103.143,1.832 M104.281,2.886h-0.261v-2.11h0.81
			c0.474,0,0.687,0.207,0.687,0.585c0,0.373-0.247,0.539-0.53,0.587l0.627,0.938h-0.303l-0.596-0.938h-0.434V2.886z M104.625,1.728
			c0.317,0,0.632-0.01,0.632-0.367c0-0.295-0.247-0.363-0.501-0.363h-0.474v0.73H104.625z"/>
	</g>
	<g>
		<rect style="&st0;" width="33.895" height="33.896"/>
		<rect x="33.895" style="&st4;" width="33.898" height="33.896"/>
		<rect x="67.793" style="&st3;" width="33.896" height="33.896"/>
		<path style="&st2;" d="M20.567,25.596V15.594c0-1.477-0.283-2.554-0.852-3.233c-0.569-0.679-1.496-1.018-2.783-1.018
			c-0.597,0-1.232,0.167-1.91,0.501c-0.675,0.334-1.204,0.749-1.581,1.244v12.507H9.393V8.219h2.918l0.746,1.62
			c1.102-1.274,2.73-1.913,4.881-1.913c2.063,0,3.693,0.618,4.888,1.854c1.195,1.238,1.792,2.961,1.792,5.175v10.641H20.567z"/>
		<path style="&st2;" d="M49.62,11.392c1.867,0,3.204,0.419,4.013,1.253c0.808,0.836,1.21,2.278,1.21,4.326
			c0,1.92-0.405,3.325-1.22,4.215c-0.813,0.889-2.152,1.333-4.018,1.333c-0.98,0-1.838-0.296-2.57-0.889v-9.106
			C47.79,11.77,48.651,11.392,49.62,11.392 M50.525,25.938c2.649,0,4.738-0.768,6.269-2.302c1.533-1.535,2.296-3.723,2.296-6.565
			c0-6.095-2.768-9.144-8.306-9.144c-1.481,0-2.731,0.487-3.749,1.46V8.218h-4.05v24.161h4.05v-7.205
			C48.083,25.682,49.247,25.938,50.525,25.938"/>
		<path style="&st2;" d="M89.225,12.026c-0.721-0.454-1.509-0.683-2.369-0.683c-0.936,0-1.768,0.426-2.492,1.277
			c-0.728,0.852-1.091,1.89-1.091,3.118v9.858h-4.052V8.219h4.052v1.66c1.129-1.301,2.63-1.953,4.502-1.953
			c1.376,0,2.431,0.211,3.161,0.632L89.225,12.026z"/>
		<path style="&st1;" d="M106.506,1.832c0,1.025-0.793,1.826-1.823,1.826c-1.032,0-1.827-0.801-1.827-1.826s0.795-1.826,1.827-1.826
			C105.713,0.006,106.506,0.806,106.506,1.832 M103.143,1.832c0,0.873,0.657,1.564,1.541,1.564c0.881,0,1.538-0.691,1.538-1.564
			c0-0.875-0.657-1.564-1.538-1.564C103.8,0.267,103.143,0.957,103.143,1.832 M104.281,2.886h-0.261v-2.11h0.81
			c0.474,0,0.687,0.207,0.687,0.585c0,0.373-0.247,0.539-0.53,0.587l0.627,0.938h-0.303l-0.596-0.938h-0.434V2.886z M104.625,1.728
			c0.317,0,0.632-0.01,0.632-0.367c0-0.295-0.247-0.363-0.501-0.363h-0.474v0.73H104.625z"/>
	</g>
</g>
</svg>
