<?xml version="1.0" encoding="utf-8"?>
<!-- Generator: Adobe Illustrator 16.2.1, SVG Export Plug-In . SVG Version: 6.00 Build 0)  -->
<!DOCTYPE svg PUBLIC "-//W3C//DTD SVG 1.1//EN" "http://www.w3.org/Graphics/SVG/1.1/DTD/svg11.dtd" [
	<!ENTITY st0 "fill:#CA2027;">
]>
<svg version="1.1" id="Layer_1" xmlns="http://www.w3.org/2000/svg" xmlns:xlink="http://www.w3.org/1999/xlink" x="0px" y="0px"
	 width="137.504px" height="38.997px" viewBox="0 0 137.504 38.997" style="enable-background:new 0 0 137.504 38.997;"
	 xml:space="preserve">
<path d="M42.915,33.729v-1.004h0.446c0.089,0,0.158,0.009,0.204,0.027c0.047,0.018,0.084,0.051,0.113,0.096
	c0.027,0.045,0.041,0.096,0.041,0.151c0,0.071-0.023,0.131-0.068,0.18c-0.046,0.049-0.119,0.08-0.214,0.093
	c0.036,0.018,0.062,0.034,0.081,0.05c0.039,0.036,0.075,0.081,0.11,0.133l0.174,0.273h-0.167L43.5,33.52
	c-0.039-0.06-0.071-0.106-0.096-0.138c-0.025-0.031-0.048-0.054-0.067-0.067c-0.02-0.012-0.041-0.021-0.061-0.026
	c-0.015-0.003-0.04-0.005-0.074-0.005h-0.154v0.446H42.915z M43.047,33.167h0.286c0.06,0,0.108-0.006,0.142-0.019
	c0.035-0.012,0.06-0.033,0.078-0.06c0.018-0.028,0.027-0.058,0.027-0.09c0-0.048-0.017-0.086-0.052-0.117
	c-0.034-0.031-0.089-0.046-0.164-0.046h-0.318V33.167z M43.357,32.181c-0.576,0-1.042,0.472-1.042,1.047
	c0,0.575,0.466,1.042,1.042,1.042c0.575,0,1.042-0.467,1.042-1.042C44.399,32.652,43.932,32.181,43.357,32.181L43.357,32.181z
	 M43.357,32.4c0.456,0,0.823,0.372,0.823,0.828s-0.367,0.823-0.823,0.823c-0.457,0-0.822-0.367-0.822-0.823S42.901,32.4,43.357,32.4
	L43.357,32.4z M27.627,38.965c0-0.083,1.38-2.133,2.973-4.417c0.569-0.816,0.769-1.283,0.825-1.93
	c0.041-0.47,0.243-1.426,0.45-2.125c0.207-0.699,0.334-1.312,0.284-1.361c-0.049-0.05-0.429,0.028-0.842,0.174
	c-0.903,0.319-1.501,0.333-2.527,0.059c-0.653-0.175-0.896-0.16-1.562,0.094c-0.74,0.283-0.833,0.283-1.524,0.007
	c-0.691-0.277-0.842-0.276-2.492,0.014c-3.083,0.542-4.079,0.238-6.136-1.87c-1.275-1.305-1.75-1.591-1.994-1.197
	c-0.06,0.097-0.292,0.176-0.518,0.176c-0.301,0-0.562-0.236-0.975-0.88c-0.311-0.483-0.786-1.037-1.056-1.229
	c-1.48-1.054-3.153-0.29-3.153,1.44c0,0.711,1.426,2.861,2.146,3.233c0.95,0.491,0.415,1.228-0.779,1.067
	c-0.618-0.083-0.891-0.269-1.72-1.164c-0.887-0.959-1.054-1.064-1.676-1.061c-0.379,0.001-1.014,0.15-1.41,0.331
	c-1.019,0.463-2.349,0.718-3.739,0.718H1.004l-0.273-1.01C0.108,25.742,0,24.846,0,22.027c0-2.157,0.083-3.275,0.324-4.387
	C1.629,11.635,4.949,6.779,9.988,3.51c2.471-1.604,4.741-2.545,7.638-3.168c2.07-0.445,6.705-0.457,8.719-0.023
	c6.856,1.478,12.533,5.802,15.49,11.796c1.655,3.357,2.284,6.088,2.284,9.913c0,3.739-0.621,6.503-2.19,9.737
	c-1.139,2.348-0.981,2.228-2.64,2.019c-1.501-0.189-3.468-0.029-4.731,0.385c-0.563,0.185-0.717,0.329-0.789,0.745
	c-0.076,0.441-0.241,0.574-1.139,0.922c-0.756,0.293-1.369,0.72-2.193,1.526c-0.629,0.616-1.302,1.197-1.494,1.291
	C28.49,38.872,27.627,39.078,27.627,38.965L27.627,38.965z M31.838,27.561c3.91-0.595,6.615-2.191,7.746-4.569
	c0.968-2.037,0.546-3.909-1.174-5.214c-0.825-0.626-2.936-1.542-3.555-1.542c-0.17,0-0.467,0.319-0.694,0.747
	c-0.345,0.648-1.313,1.535-1.677,1.535c-0.067,0,0.116-0.445,0.406-0.989c0.311-0.584,0.528-1.254,0.528-1.634
	c0-1.699-1.831-6.667-3.304-8.961c-0.681-1.062-1.02-1.408-1.784-1.822c-1.32-0.716-2.897-0.805-4.955-0.28
	c-1.236,0.314-1.809,0.369-2.981,0.285c-4.776-0.346-4.585-0.348-5.375,0.055c-1.006,0.514-1.323,1.114-1.947,3.692
	c-0.674,2.79-0.69,3.652-0.078,4.379c0.624,0.742,2.631,1.66,4.632,2.121c2.395,0.55,4.028,1.037,4.482,1.334
	c0.218,0.143,0.49,0.512,0.605,0.82c0.502,1.344,0.773,1.887,1.079,2.163c0.179,0.163,0.327,0.393,0.327,0.511
	c0,1.272-9.06-1.549-11.395-3.548c-1.012-0.866-1.302-1.5-1.177-2.562l0.102-0.866L9.331,13.29
	c-1.959,0.064-2.448,0.138-3.153,0.479c-2.422,1.168-2.308,3.12,0.331,5.627c3.857,3.663,11.761,7.234,18.038,8.151
	C26.704,27.862,29.822,27.868,31.838,27.561L31.838,27.561L31.838,27.561z M15.448,10.611c-0.633-0.647-0.863-1.016-0.863-1.391
	c0-0.876,0.628-1.332,1.143-0.829c0.774,0.757,1.046,0.827,2.781,0.713c1.812-0.119,2.861,0.084,3.056,0.59
	c0.176,0.459-0.133,0.602-1.683,0.772c-1.67,0.184-2.485,0.412-2.789,0.777C16.735,11.676,16.345,11.525,15.448,10.611
	L15.448,10.611z M25.302,7.848c-0.802-0.066-0.848-0.279-0.105-0.492c0.679-0.195,1.057-0.706,0.69-0.935
	c-0.39-0.243-1.732-0.397-2.326-0.267c-0.355,0.078-0.501,0.057-0.428-0.063c0.186-0.3,2.045-0.605,3.102-0.51
	c1.101,0.1,1.993,0.488,2.167,0.944C28.697,7.293,27.055,7.993,25.302,7.848L25.302,7.848z M24.685,33.606
	c-0.316-0.193-0.773-0.351-1.014-0.351c-0.514,0-0.738-0.417-0.427-0.792c0.272-0.328,1.177-0.327,1.752,0.002
	c0.615,0.352,1.121,0.322,1.491-0.088c0.428-0.472,0.614-0.441,0.614,0.101c0,0.57-0.883,1.479-1.433,1.478
	C25.443,33.957,25,33.799,24.685,33.606L24.685,33.606L24.685,33.606z M24.685,33.606"/>
<path d="M136.02,34.023v-1.005h0.446c0.089,0,0.157,0.009,0.203,0.027c0.047,0.018,0.085,0.05,0.112,0.095
	c0.028,0.046,0.041,0.097,0.041,0.152c0,0.071-0.022,0.132-0.068,0.18c-0.046,0.049-0.118,0.08-0.214,0.093
	c0.035,0.017,0.062,0.035,0.079,0.05c0.04,0.036,0.077,0.08,0.111,0.134l0.175,0.273h-0.167l-0.133-0.209
	c-0.039-0.06-0.071-0.105-0.096-0.139c-0.026-0.031-0.049-0.054-0.067-0.066c-0.021-0.013-0.041-0.021-0.062-0.027
	c-0.015-0.003-0.04-0.005-0.074-0.005h-0.153v0.446H136.02L136.02,34.023z M136.154,33.462h0.285c0.061,0,0.108-0.007,0.143-0.019
	c0.035-0.013,0.06-0.033,0.078-0.061c0.018-0.027,0.026-0.057,0.026-0.089c0-0.048-0.017-0.087-0.051-0.118
	c-0.035-0.03-0.09-0.045-0.164-0.045h-0.317V33.462L136.154,33.462z M136.462,32.475c-0.575,0-1.041,0.473-1.041,1.047
	s0.466,1.042,1.041,1.042s1.042-0.467,1.042-1.042S137.038,32.475,136.462,32.475L136.462,32.475z M136.462,32.695
	c0.456,0,0.823,0.371,0.823,0.828c0,0.456-0.367,0.822-0.823,0.822s-0.822-0.366-0.822-0.822
	C135.64,33.066,136.006,32.695,136.462,32.695L136.462,32.695z M88.085,34.31c1.295-0.274,2.144-0.743,3.039-1.678l0.769-0.801
	l-0.028,2.372l3.559,0.033L95.331,13.05l-3.816-0.997l-0.131,8.269l-0.709-0.606c-0.42-0.36-1.12-0.722-1.722-0.891
	c-3.462-0.97-6.795,0.893-8.121,4.541c-0.527,1.45-0.574,4.798-0.086,6.229c0.838,2.461,2.612,4.206,4.803,4.722
	C86.482,34.537,87.023,34.535,88.085,34.31L88.085,34.31L88.085,34.31z M86.909,31.135c-0.894-0.317-1.401-0.775-1.932-1.747
	c-0.432-0.792-0.521-1.178-0.581-2.54c-0.083-1.875,0.199-2.955,1.039-3.975c1.604-1.946,4.464-1.643,5.606,0.595
	c0.486,0.956,0.495,4.808,0.012,5.87C90.339,30.911,88.512,31.702,86.909,31.135L86.909,31.135L86.909,31.135z M118.791,34.31
	c1.238-0.262,2.115-0.726,2.945-1.557l0.688-0.687l0.117,1.045l0.118,1.045h0.636h0.637l-0.046-5.22
	c-0.046-5.296-0.178-6.645-0.751-7.765c-0.41-0.8-1.328-1.671-2.1-1.991c-1.534-0.637-3.917-0.501-5.746,0.327
	c-0.977,0.442-1.019,0.51-0.753,1.208l0.169,0.444l1.006-0.461c1.327-0.607,3.243-0.751,4.353-0.327
	c1.422,0.543,2.196,1.831,2.198,3.652l0.001,0.833h-1.124c-2.522,0-5.375,0.912-6.56,2.097c-0.956,0.956-1.328,1.861-1.336,3.256
	c-0.014,2.245,1.165,3.656,3.493,4.178C117.365,34.528,117.844,34.51,118.791,34.31L118.791,34.31L118.791,34.31z M116.304,32.791
	c-0.962-0.532-1.297-1.117-1.379-2.411c-0.088-1.381,0.134-1.98,1.031-2.792c0.865-0.781,2.502-1.288,4.649-1.439l1.657-0.117v2.008
	c0,1.953-0.016,2.033-0.569,2.958c-0.812,1.354-1.847,1.958-3.512,2.055C117.163,33.113,116.792,33.061,116.304,32.791
	L116.304,32.791z M132.797,34.33c0.513-0.097,0.958-0.203,0.99-0.236c0.032-0.031,0.009-0.303-0.051-0.604l-0.108-0.546
	l-1.087,0.101c-1.326,0.125-2.029-0.18-2.447-1.058c-0.246-0.52-0.286-1.381-0.286-6.148v-5.544h2.105h2.105v-0.614v-0.614h-2.105
	h-2.105v-1.579c0-0.869-0.05-1.58-0.11-1.58c-0.062,0-0.417,0.092-0.79,0.204l-0.679,0.203v1.368v1.369l-1.272,0.051l-1.271,0.051
	l-0.055,0.571l-0.056,0.57h1.318h1.318l0.053,5.834c0.051,5.576,0.068,5.865,0.43,6.536c0.495,0.926,0.926,1.294,1.846,1.582
	C131.488,34.542,131.648,34.548,132.797,34.33L132.797,34.33z M76.835,33.833l1.156-0.376l-0.265-1.273
	c-0.147-0.701-0.286-1.301-0.311-1.335c-0.025-0.034-0.549,0.065-1.165,0.219c-0.654,0.164-1.85,0.281-2.875,0.281
	c-1.567,0-1.858-0.052-2.707-0.482c-1.107-0.562-1.898-1.574-2.037-2.603l-0.092-0.688h5.062h5.061l-0.015-2.019
	c-0.012-1.652-0.085-2.188-0.402-2.964c-1.166-2.851-3.312-4.194-6.409-4.012c-3.062,0.181-5.278,1.794-6.411,4.67
	c-1.064,2.701-0.653,6.438,0.928,8.437c0.784,0.989,2.088,1.882,3.355,2.295C71.197,34.471,75.128,34.386,76.835,33.833
	L76.835,33.833L76.835,33.833z M68.576,24.55c0.003-0.563,0.819-2.071,1.373-2.537c1.631-1.372,3.818-0.947,4.774,0.929
	c0.189,0.37,0.344,0.953,0.344,1.293v0.621H71.82C68.845,24.856,68.574,24.831,68.576,24.55L68.576,24.55z M59.275,29.332
	c0.095-5.151,0.117-5.267,1.168-6.262c0.663-0.627,1.291-0.845,2.44-0.845h0.954v-1.867v-1.866l-1.053,0.095
	c-1.646,0.149-3.154,1.213-3.792,2.673l-0.229,0.526l-0.007-0.633c-0.004-0.349-0.058-1-0.12-1.448l-0.111-0.814h-1.621h-1.622
	l-0.009,15.413l3.913-0.001L59.275,29.332L59.275,29.332L59.275,29.332z M100.332,28.717c0.098-5.955,0.083-5.873,1.375-7.165
	c0.883-0.883,1.836-1.312,3.1-1.396c1.485-0.097,2.735,0.561,3.439,1.81c0.699,1.24,0.851,2.616,0.855,7.758l0.003,4.432h1.404
	v-5.334c0-4.815,0.011-5.457-0.347-6.455c-1.977-5.518-7.711-3.716-9.83-0.915l-0.097-7.134l-1.482-0.364v20.222l1.516,0.002
	L100.332,28.717L100.332,28.717L100.332,28.717z M100.332,28.717"/>
<path style="&st0;" d="M25.82,4.494c-0.734-0.006-1.545,0.105-2.445,0.335c-1.236,0.315-1.811,0.37-2.982,0.286
	c-4.777-0.346-4.584-0.348-5.374,0.055c-1.006,0.513-1.323,1.117-1.947,3.695c-0.674,2.791-0.688,3.649-0.077,4.375
	c0.625,0.742,2.632,1.662,4.633,2.122c2.395,0.551,4.025,1.035,4.48,1.333c0.217,0.143,0.487,0.514,0.603,0.823
	c0.502,1.344,0.775,1.889,1.081,2.166c0.179,0.163,0.329,0.392,0.329,0.511c0,1.271-9.064-1.549-11.4-3.548
	c-1.011-0.866-1.299-1.503-1.173-2.566l0.099-0.867l-2.32,0.077c-1.958,0.064-2.448,0.137-3.153,0.477
	c-2.422,1.168-2.304,3.125,0.335,5.632c3.856,3.663,11.762,7.23,18.04,8.147c2.157,0.315,5.275,0.324,7.292,0.016
	c3.908-0.594,6.612-2.189,7.742-4.567c0.968-2.036,0.547-3.909-1.174-5.214c-0.826-0.627-2.934-1.542-3.553-1.542
	c-0.17,0-0.469,0.318-0.697,0.747c-0.345,0.648-1.314,1.535-1.677,1.535c-0.068,0,0.114-0.448,0.405-0.994
	c0.312-0.583,0.532-1.253,0.532-1.633c0-1.699-1.834-6.664-3.306-8.959c-0.682-1.062-1.019-1.412-1.781-1.826
	C27.589,4.706,26.766,4.503,25.82,4.494L25.82,4.494z M25.804,5.563c0.152,0.001,0.301,0.005,0.433,0.017
	c1.101,0.099,1.991,0.487,2.166,0.942c0.294,0.768-1.345,1.472-3.098,1.327c-0.803-0.066-0.852-0.28-0.11-0.494
	c0.679-0.194,1.058-0.704,0.69-0.932c-0.39-0.243-1.73-0.399-2.324-0.268C23.206,6.234,23.06,6.21,23.134,6.09
	C23.296,5.829,24.738,5.563,25.804,5.563L25.804,5.563z M15.233,8.185c0.16-0.014,0.332,0.05,0.493,0.208
	c0.776,0.757,1.045,0.826,2.781,0.713c1.811-0.119,2.865,0.081,3.059,0.587c0.176,0.459-0.133,0.602-1.684,0.772
	c-1.67,0.185-2.486,0.413-2.791,0.779c-0.357,0.431-0.748,0.284-1.645-0.63c-0.634-0.647-0.861-1.018-0.861-1.393
	C14.585,8.618,14.88,8.214,15.233,8.185L15.233,8.185z M15.233,8.185"/>
</svg>
