<?xml version="1.0" encoding="utf-8"?>
<!-- Generator: Adobe Illustrator 16.2.1, SVG Export Plug-In . SVG Version: 6.00 Build 0)  -->
<!DOCTYPE svg PUBLIC "-//W3C//DTD SVG 1.1//EN" "http://www.w3.org/Graphics/SVG/1.1/DTD/svg11.dtd" [
	<!ENTITY st0 "fill:#4D4D4F;">
	<!ENTITY st1 "fill:url(#SVGID_1_);">
	<!ENTITY st2 "fill:url(#SVGID_2_);">
]>
<svg version="1.1" id="Layer_1" xmlns="http://www.w3.org/2000/svg" xmlns:xlink="http://www.w3.org/1999/xlink" x="0px" y="0px"
	 width="169.396px" height="36.106px" viewBox="0 0 169.396 36.106" style="enable-background:new 0 0 169.396 36.106;"
	 xml:space="preserve">
<g>
	<radialGradient id="SVGID_1_" cx="159.4033" cy="18.6196" r="1.2173" gradientUnits="userSpaceOnUse">
		<stop  offset="0" style="stop-color:#408BAC"/>
		<stop  offset="1" style="stop-color:#408BAC"/>
	</radialGradient>
	<path style="&st1;" d="M160.783,18.248c0-0.435-0.309-0.658-0.743-0.658c-1.162,0-1.807,1.134-2.017,2.059
		C158.836,19.662,160.783,19.452,160.783,18.248z"/>
	<radialGradient id="SVGID_2_" cx="153.8193" cy="17.5376" r="16.5856" gradientUnits="userSpaceOnUse">
		<stop  offset="0" style="stop-color:#408BAC"/>
		<stop  offset="1" style="stop-color:#408BAC"/>
	</radialGradient>
	<path style="&st2;" d="M161.455,6.452c-3.988-2.384-6.239-4.912-7.034-6.015c0,0-0.281-0.437-0.602-0.437
		c-0.319,0-0.579,0.437-0.579,0.437c-0.784,1.104-3.087,3.644-7.095,6.038c-4.533,2.723-7.902,7.35-7.902,13.024
		c0,8.603,6.974,15.576,15.575,15.576c8.604,0,15.577-6.973,15.577-15.576C169.396,13.81,166.011,9.171,161.455,6.452z
		 M155.452,18.906l-0.841,4.734h-1.667l0.785-4.44c0.042-0.21,0.069-0.42,0.069-0.603c0-0.532-0.168-0.924-0.798-0.924
		c-0.827,0-1.457,0.7-1.583,1.429l-0.799,4.538h-1.667l0.785-4.44c0.042-0.21,0.069-0.42,0.069-0.616c0-0.504-0.14-0.91-0.812-0.91
		c-0.84,0-1.456,0.7-1.583,1.456l-0.784,4.511h-1.667l1.022-5.827l0.099-1.219h1.387l-0.028,0.868
		c0.603-0.686,1.359-1.078,2.241-1.078c0.883,0,1.499,0.336,1.737,1.12c0.561-0.728,1.358-1.12,2.255-1.12
		c1.19,0,1.85,0.588,1.85,1.765C155.522,18.374,155.494,18.654,155.452,18.906z M159.312,22.562c0.812,0,1.43-0.379,1.808-0.617
		l0.504,1.093c-0.35,0.267-1.331,0.812-2.718,0.812c-1.919,0-2.717-1.19-2.717-2.815c0-2.423,1.555-4.65,4.104-4.65
		c1.275,0,2.018,0.658,2.018,1.639c0,2.451-2.941,2.746-4.44,2.76C157.799,21.68,158.121,22.562,159.312,22.562z"/>
</g>
<g>
	<path style="&st0;" d="M11.519,10.333V3.53h4.247v21.49l0.324,3.527h-3.671l-0.288-1.944l-0.144-0.036
		c-1.116,1.656-2.916,2.52-4.896,2.52C1.476,29.087,0,24.695,0,20.196C0,14.041,3.167,9.901,8.711,9.901
		C9.863,9.901,10.69,10.081,11.519,10.333z M11.519,13.609c-0.648-0.288-1.584-0.576-2.7-0.576c-3.42,0-4.572,3.24-4.572,6.767
		c0,3.276,0.792,6.12,3.708,6.12c2.196,0,3.564-1.584,3.564-2.988V13.609z"/>
	<path style="&st0;" d="M23.723,28.547h-4.283v-15.19l-0.324-2.916h3.528l0.432,2.628c0.792-2.052,2.556-3.167,4.355-3.167
		c1.08,0,2.088,0.252,2.88,0.72l-0.756,3.636c-0.792-0.432-1.62-0.72-2.556-0.72c-1.944,0-3.204,1.548-3.276,3.636V28.547z"/>
	<path style="&st0;" d="M46.545,10.441v15.083l0.288,3.023h-3.672l-0.252-2.124h-0.144c-1.224,1.8-3.167,2.627-5.219,2.627
		c-3.959,0-5.939-2.088-5.939-6.335V10.441h4.283v11.483c0,2.196,0.396,3.815,2.808,3.815c1.944,0,3.563-1.728,3.563-3.456V10.441
		H46.545z"/>
	<path style="&st0;" d="M54.156,36.106h-4.283V11.089c2.699-0.828,5.363-1.188,7.199-1.188c5.759,0,8.459,3.204,8.459,9.431
		c0,6.335-2.916,9.755-7.631,9.755c-1.404,0-2.808-0.468-3.744-1.044V36.106z M56.28,13.321c-0.647,0-1.368,0.072-2.124,0.252
		v11.086c0.936,0.612,2.124,0.9,3.06,0.9c3.06,0,3.996-3.023,3.996-5.903C61.211,15.444,59.592,13.321,56.28,13.321z"/>
	<path style="&st0;" d="M83.234,25.091l0.324,3.456h-3.707L79.6,26.639l-0.145-0.036c-1.115,1.62-2.952,2.412-4.931,2.412
		c-5.075,0-7.055-3.6-7.055-8.747c0-6.335,3.167-10.367,9.358-10.367c1.188,0,3.815,0.288,6.407,1.26V25.091z M78.988,13.501
		c-0.541-0.252-1.584-0.468-2.701-0.468c-3.419,0-4.571,3.204-4.571,7.091c0,2.987,0.72,5.831,3.744,5.831
		c2.231,0,3.528-1.583,3.528-3.131V13.501z"/>
	<path style="&st0;" d="M99.064,2.846c1.475,0,2.482,1.08,2.482,2.412c0,1.368-1.043,2.375-2.482,2.375
		c-1.514,0-2.484-1.008-2.484-2.375C96.58,3.926,97.588,2.846,99.064,2.846z M96.939,28.547V10.441h4.283v18.106H96.939z"/>
	<path style="&st0;" d="M117.34,25.19h-8.622v-0.075c0.928-0.967,3.402-4.237,4.297-5.315l5.395-6.569v-2.789h-13.996V13.8h8.57
		v0.074c-0.967,1.041-1.9,2.219-2.828,3.334l-6.803,8.699v2.64h16.401C118.319,27.404,117.922,26.613,117.34,25.19z"/>
	<path style="&st0;" d="M95.205,25.128c-0.756,0.324-1.547,0.575-2.266,0.575c-1.477,0-1.945-0.828-1.945-3.06V3.566h-4.283v19.978
		c0,2.7,0.289,5.543,5.148,5.543c1.133,0,2.377-0.252,3.346-0.626V25.128z"/>
	<path style="&st0;" d="M132.133,24.352l-0.075-0.125c-0.863,0.612-2.41,1.583-4.535,1.583c-3.059,0-4.391-2.268-4.535-4.607
		c3.312-0.036,10.188-0.756,10.188-6.299c0-3.204-2.195-5.003-5.725-5.003c-5.723,0-8.781,4.679-8.781,9.971
		c0,5.399,2.447,9.215,8.387,9.215c3.311,0,5.635-1.414,6.523-2.163C133.021,26.117,132.532,25.261,132.133,24.352z M127.198,12.961
		c1.297,0,2.16,0.792,2.16,2.124c0,2.772-4.57,3.384-6.516,3.348C122.952,15.769,124.319,12.961,127.198,12.961z"/>
</g>
</svg>
