<?xml version="1.0" encoding="utf-8"?>
<!-- Generator: Adobe Illustrator 17.0.0, SVG Export Plug-In . SVG Version: 6.00 Build 0)  -->
<!DOCTYPE svg PUBLIC "-//W3C//DTD SVG 1.1//EN" "http://www.w3.org/Graphics/SVG/1.1/DTD/svg11.dtd">
<svg version="1.1" id="Layer_1" xmlns="http://www.w3.org/2000/svg" xmlns:xlink="http://www.w3.org/1999/xlink" x="0px" y="0px"
	 width="14.056px" height="14.056px" viewBox="0 0 14.056 14.056" enable-background="new 0 0 14.056 14.056" xml:space="preserve">
<path fill="#31B44D" d="M7.028,0C3.147,0,0,3.147,0,7.028s3.147,7.028,7.028,7.028c3.881,0,7.028-3.147,7.028-7.028
	S10.909,0,7.028,0 M11.414,4.012L7.398,11.04c-0.158,0.277-0.437,0.461-0.754,0.499c-0.039,0.005-0.078,0.007-0.117,0.007
	c-0.276,0-0.541-0.113-0.731-0.316L3.787,9.096C3.407,8.693,3.426,8.058,3.83,7.677c0.404-0.38,1.039-0.361,1.419,0.043l1.078,1.146
	l3.343-5.85c0.275-0.481,0.889-0.65,1.37-0.374C11.522,2.917,11.689,3.531,11.414,4.012"/>
</svg>
