<?xml version="1.0" encoding="utf-8"?>
<!-- Generator: Adobe Illustrator 16.2.1, SVG Export Plug-In . SVG Version: 6.00 Build 0)  -->
<!DOCTYPE svg PUBLIC "-//W3C//DTD SVG 1.1//EN" "http://www.w3.org/Graphics/SVG/1.1/DTD/svg11.dtd" [
	<!ENTITY st0 "fill:#ABABAB;">
]>
<svg version="1.1" id="Layer_1" xmlns="http://www.w3.org/2000/svg" xmlns:xlink="http://www.w3.org/1999/xlink" x="0px" y="0px"
	 width="15.083px" height="15.083px" viewBox="0 0 15.083 15.083" style="enable-background:new 0 0 15.083 15.083;"
	 xml:space="preserve">
<path style="&st0;" d="M7.542,0C3.376,0,0,3.377,0,7.542c0,4.165,3.376,7.542,7.542,7.542c4.166,0,7.542-3.377,7.542-7.542
	C15.083,3.377,11.707,0,7.542,0 M11.535,9.381l-3.231,3.231c-0.05,0.051-0.105,0.096-0.165,0.136
	c-0.026,0.018-0.056,0.029-0.083,0.045c-0.034,0.018-0.066,0.038-0.102,0.054c-0.036,0.015-0.073,0.023-0.109,0.034
	c-0.031,0.009-0.06,0.021-0.092,0.027c-0.07,0.014-0.14,0.021-0.211,0.021c-0.07,0-0.141-0.007-0.21-0.021
	c-0.032-0.006-0.062-0.019-0.094-0.027c-0.036-0.011-0.072-0.02-0.107-0.034c-0.037-0.016-0.07-0.037-0.105-0.056
	c-0.026-0.015-0.055-0.026-0.08-0.043c-0.059-0.04-0.115-0.085-0.166-0.136L3.548,9.381c-0.421-0.42-0.421-1.103,0-1.523
	c0.421-0.421,1.103-0.421,1.523,0L6.464,9.25V3.232c0-0.595,0.482-1.077,1.077-1.077c0.596,0,1.077,0.482,1.077,1.077V9.25
	l1.393-1.393c0.42-0.421,1.104-0.421,1.523,0C11.956,8.278,11.956,8.96,11.535,9.381"/>
</svg>
