<?xml version="1.0" encoding="utf-8"?>
<!-- Generator: Adobe Illustrator 16.2.1, SVG Export Plug-In . SVG Version: 6.00 Build 0)  -->
<!DOCTYPE svg PUBLIC "-//W3C//DTD SVG 1.1//EN" "http://www.w3.org/Graphics/SVG/1.1/DTD/svg11.dtd">
<svg version="1.1" id="Layer_1" xmlns="http://www.w3.org/2000/svg" xmlns:xlink="http://www.w3.org/1999/xlink" x="0px" y="0px"
	 width="20.062px" height="20.062px" viewBox="0 0 20.062 20.062" enable-background="new 0 0 20.062 20.062" xml:space="preserve">
<path fill="#797979" d="M10.031,0C4.492,0,0,4.492,0,10.031c0,5.541,4.492,10.031,10.031,10.031c5.541,0,10.031-4.49,10.031-10.031
	C20.062,4.492,15.572,0,10.031,0 M14.627,14.627c-0.279,0.279-0.646,0.42-1.013,0.42c-0.367,0-0.734-0.141-1.013-0.42l-2.569-2.569
	l-2.57,2.569c-0.28,0.279-0.646,0.42-1.014,0.42c-0.366,0-0.733-0.141-1.013-0.42c-0.56-0.56-0.56-1.467,0-2.026l2.57-2.569
	L5.436,7.462c-0.559-0.56-0.559-1.467,0-2.026s1.467-0.56,2.026,0l2.57,2.569l2.568-2.569c0.56-0.56,1.468-0.56,2.027,0
	s0.559,1.467,0,2.026l-2.569,2.569l2.569,2.569C15.187,13.16,15.187,14.067,14.627,14.627"/>
</svg>
