<?xml version="1.0" encoding="utf-8"?>
<!-- Generator: Adobe Illustrator 16.2.1, SVG Export Plug-In . SVG Version: 6.00 Build 0)  -->
<!DOCTYPE svg PUBLIC "-//W3C//DTD SVG 1.1//EN" "http://www.w3.org/Graphics/SVG/1.1/DTD/svg11.dtd">
<svg version="1.1" id="Layer_1" xmlns="http://www.w3.org/2000/svg" xmlns:xlink="http://www.w3.org/1999/xlink" x="0px" y="0px"
	 width="20.044px" height="20.043px" viewBox="0 0 20.044 20.043" enable-background="new 0 0 20.044 20.043" xml:space="preserve">
<path fill="#31B44D" d="M10.022,0C4.487,0,0,4.487,0,10.022c0,5.535,4.487,10.021,10.022,10.021c5.534,0,10.022-4.487,10.022-10.021
	C20.044,4.487,15.556,0,10.022,0 M13.601,11.453h-2.147v2.148c0,0.79-0.641,1.432-1.432,1.432c-0.79,0-1.432-0.642-1.432-1.432
	v-2.148H6.443c-0.791,0-1.432-0.642-1.432-1.431c0-0.791,0.642-1.432,1.432-1.432H8.59V6.443c0-0.792,0.642-1.432,1.432-1.432
	c0.791,0,1.432,0.64,1.432,1.432V8.59h2.147c0.791,0,1.432,0.641,1.432,1.432C15.033,10.811,14.392,11.453,13.601,11.453"/>
</svg>
