<?xml version="1.0" encoding="utf-8"?>
<!-- Generator: Adobe Illustrator 17.0.0, SVG Export Plug-In . SVG Version: 6.00 Build 0)  -->
<!DOCTYPE svg PUBLIC "-//W3C//DTD SVG 1.1//EN" "http://www.w3.org/Graphics/SVG/1.1/DTD/svg11.dtd">
<svg version="1.1" id="Layer_1" xmlns="http://www.w3.org/2000/svg" xmlns:xlink="http://www.w3.org/1999/xlink" x="0px" y="0px"
	 width="14.136px" height="22.971px" viewBox="0 0 14.136 22.971" enable-background="new 0 0 14.136 22.971" xml:space="preserve">
<path fill="#FFFFFF" d="M14.136,7.068C14.136,3.165,10.972,0,7.068,0S0,3.165,0,7.068c0,1.289,0.352,2.493,0.954,3.534H0.946
	l6.123,12.369l6.125-12.369h-0.009C13.788,9.561,14.136,8.357,14.136,7.068 M7.071,10.601c-1.953,0-3.534-1.582-3.534-3.534
	c0-1.95,1.582-3.534,3.534-3.534c1.95,0,3.534,1.583,3.534,3.534C10.604,9.019,9.021,10.601,7.071,10.601"/>
</svg>
