<?xml version="1.0" encoding="utf-8"?>
<!-- Generator: Adobe Illustrator 16.2.1, SVG Export Plug-In . SVG Version: 6.00 Build 0)  -->
<!DOCTYPE svg PUBLIC "-//W3C//DTD SVG 1.1//EN" "http://www.w3.org/Graphics/SVG/1.1/DTD/svg11.dtd">
<svg version="1.1" id="Layer_1" xmlns="http://www.w3.org/2000/svg" xmlns:xlink="http://www.w3.org/1999/xlink" x="0px" y="0px"
	 width="22.227px" height="10px" viewBox="0 0 22.227 10" enable-background="new 0 0 22.227 10" xml:space="preserve">
<polygon fill="#BFBFBF" points="8.437,0 7.878,3.464 4.05,3.464 4.637,0 1.704,0 0,10 2.932,10 3.632,5.922 7.459,5.922 6.76,10 
	9.666,10 11.37,0 "/>
<path fill="#BFBFBF" d="M18.382,0h-5.586l-0.392,2.319h5.504c1.006,0,1.425,0.279,1.2,1.563l-0.335,2.096
	c-0.195,1.062-0.698,1.703-1.788,1.703h-2.542l0.698-4.217h-2.933L11.12,10h5.949c3.046,0,4.246-1.285,4.693-4.021l0.362-2.096
	C22.6,1.062,21.427,0,18.382,0L18.382,0z"/>
</svg>
