<?xml version="1.0" encoding="utf-8"?>
<!-- Generator: Adobe Illustrator 17.0.0, SVG Export Plug-In . SVG Version: 6.00 Build 0)  -->
<!DOCTYPE svg PUBLIC "-//W3C//DTD SVG 1.1//EN" "http://www.w3.org/Graphics/SVG/1.1/DTD/svg11.dtd">
<svg version="1.1" id="Layer_1" xmlns="http://www.w3.org/2000/svg" xmlns:xlink="http://www.w3.org/1999/xlink" x="0px" y="0px"
	 width="11.986px" height="11.986px" viewBox="0 0 11.986 11.986" enable-background="new 0 0 11.986 11.986" xml:space="preserve">
<path fill="#1D91D0" d="M5.993,0C2.684,0,0,2.684,0,5.993c0,3.31,2.684,5.993,5.993,5.993c3.31,0,5.993-2.683,5.993-5.993
	C11.986,2.684,9.303,0,5.993,0 M7.407,8.529c-0.41,0.602-0.719,1-0.943,1.216c-0.383,0.369-0.801,0.556-1.246,0.556
	c-0.267,0-0.509-0.083-0.718-0.246C4.273,9.88,4.16,9.618,4.16,9.274c0-0.116,0.024-0.284,0.076-0.515
	c0.029-0.127,0.071-0.293,0.128-0.5l0.773-2.84c0.004-0.019,0.006-0.037,0.006-0.054c0-0.028-0.003-0.118-0.037-0.131
	C5.06,5.217,4.931,5.185,4.597,5.17c-0.1-0.004-0.179-0.087-0.179-0.187V4.659c0-0.098,0.076-0.179,0.174-0.186
	c0.228-0.016,0.56-0.049,0.994-0.098c0.432-0.049,0.741-0.092,0.918-0.127l0.524-0.101c0.063-0.012,0.129,0.009,0.173,0.057
	c0.045,0.047,0.06,0.114,0.044,0.176L6.291,7.874C6.212,8.17,6.158,8.376,6.13,8.491C6.038,8.871,6.028,8.989,6.028,9.023
	C6.041,9.045,6.139,9.04,6.355,8.791C6.53,8.59,6.687,8.375,6.822,8.153C6.848,8.11,6.891,8.079,6.94,8.068
	c0.048-0.011,0.101-0.002,0.143,0.024l0.27,0.174c0.042,0.027,0.072,0.071,0.082,0.12C7.446,8.436,7.436,8.487,7.407,8.529
	 M7.439,3.128C7.244,3.325,7.003,3.426,6.725,3.426c-0.278,0-0.519-0.1-0.717-0.298C5.811,2.931,5.71,2.69,5.71,2.411
	s0.101-0.52,0.299-0.715c0.396-0.39,1.039-0.389,1.429,0.001c0.195,0.195,0.294,0.435,0.294,0.714
	C7.733,2.69,7.634,2.93,7.439,3.128"/>
</svg>
