<?xml version="1.0" encoding="utf-8"?>
<!-- Generator: Adobe Illustrator 17.0.0, SVG Export Plug-In . SVG Version: 6.00 Build 0)  -->
<!DOCTYPE svg PUBLIC "-//W3C//DTD SVG 1.1//EN" "http://www.w3.org/Graphics/SVG/1.1/DTD/svg11.dtd">
<svg version="1.1" id="Layer_1" xmlns="http://www.w3.org/2000/svg" xmlns:xlink="http://www.w3.org/1999/xlink" x="0px" y="0px"
	 width="24px" height="20px" viewBox="0 0 24.265 20.223" enable-background="new 0 0 24.265 20.223" xml:space="preserve">
<path fill="#1D91D0" d="M16.541,16.402c-1.337,0.937-2.901,1.407-4.5,1.385c-0.211-0.002-0.421-0.013-0.628-0.032
	c-0.085-0.008-0.17-0.022-0.255-0.032c-0.163-0.022-0.327-0.044-0.486-0.074c-0.098-0.019-0.194-0.044-0.29-0.066
	c-0.156-0.036-0.311-0.074-0.463-0.119c-0.074-0.023-0.145-0.049-0.218-0.073c-0.176-0.059-0.35-0.12-0.52-0.191
	c-0.039-0.015-0.076-0.034-0.114-0.051c-0.199-0.087-0.396-0.18-0.586-0.282c-0.009-0.005-0.017-0.009-0.026-0.014
	c-0.643-0.353-1.232-0.794-1.748-1.309c-0.008-0.008-0.016-0.018-0.025-0.027c-0.16-0.161-0.313-0.329-0.459-0.505
	c-0.031-0.037-0.06-0.078-0.091-0.116c-1.051-1.314-1.684-2.978-1.684-4.788h2.022L3.235,5.255L0,10.108h2.022
	c0,2.127,0.663,4.099,1.79,5.73c0.014,0.023,0.023,0.047,0.039,0.07c0.116,0.167,0.246,0.32,0.371,0.478
	c0.047,0.06,0.091,0.121,0.139,0.18c0.184,0.224,0.38,0.434,0.582,0.64c0.019,0.02,0.037,0.04,0.056,0.059
	c0.676,0.677,1.441,1.247,2.272,1.703c0.022,0.013,0.044,0.026,0.067,0.038c0.239,0.129,0.485,0.245,0.735,0.355
	c0.062,0.027,0.123,0.057,0.186,0.083c0.214,0.088,0.433,0.166,0.654,0.239c0.104,0.036,0.208,0.072,0.314,0.104
	c0.193,0.057,0.391,0.105,0.59,0.152c0.132,0.031,0.263,0.064,0.397,0.09c0.056,0.011,0.108,0.028,0.163,0.037
	c0.188,0.033,0.376,0.052,0.564,0.074c0.068,0.008,0.134,0.019,0.202,0.027c0.337,0.033,0.674,0.055,1.009,0.055
	c2.055,0,4.06-0.628,5.781-1.834c0.548-0.385,0.682-1.14,0.298-1.69C17.846,16.15,17.089,16.017,16.541,16.402"/>
<path fill="#1D91D0" d="M22.244,10.108c-0.001-2.121-0.66-4.089-1.781-5.716c-0.016-0.027-0.028-0.056-0.046-0.082
	c-0.139-0.199-0.291-0.384-0.442-0.57c-0.018-0.023-0.034-0.046-0.053-0.069c-1.026-1.245-2.314-2.207-3.774-2.835
	c-0.04-0.018-0.08-0.037-0.121-0.054c-0.233-0.096-0.472-0.181-0.712-0.261c-0.087-0.028-0.171-0.06-0.26-0.086
	c-0.209-0.063-0.421-0.115-0.636-0.164c-0.118-0.027-0.236-0.057-0.356-0.081c-0.059-0.011-0.115-0.029-0.173-0.04
	c-0.16-0.027-0.32-0.04-0.48-0.061C13.3,0.076,13.191,0.059,13.08,0.048c-0.269-0.025-0.535-0.036-0.802-0.04
	C12.229,0.007,12.182,0,12.133,0c-0.009,0-0.017,0.002-0.026,0.003c-2.053,0.002-4.054,0.621-5.772,1.825
	c-0.549,0.384-0.683,1.141-0.298,1.69C6.42,4.067,7.178,4.2,7.727,3.815c1.327-0.929,2.875-1.4,4.463-1.386
	c0.228,0.002,0.453,0.013,0.675,0.034c0.068,0.007,0.136,0.018,0.204,0.026c0.183,0.023,0.364,0.049,0.542,0.083
	c0.079,0.015,0.157,0.036,0.234,0.053c0.176,0.04,0.35,0.082,0.521,0.133c0.054,0.017,0.108,0.036,0.162,0.054
	c0.195,0.064,0.387,0.133,0.576,0.211c0.019,0.008,0.039,0.018,0.057,0.026c1.131,0.486,2.122,1.235,2.896,2.172
	c0.005,0.006,0.01,0.013,0.015,0.019c1.089,1.326,1.745,3.021,1.745,4.867h-2.023l3.236,4.853l3.235-4.853H22.244z"/>
</svg>
