<?xml version="1.0" encoding="utf-8"?>
<!-- Generator: Adobe Illustrator 16.2.1, SVG Export Plug-In . SVG Version: 6.00 Build 0)  -->
<!DOCTYPE svg PUBLIC "-//W3C//DTD SVG 1.1//EN" "http://www.w3.org/Graphics/SVG/1.1/DTD/svg11.dtd" [
	<!ENTITY st0 "fill:#F3703C;">
]>
<svg version="1.1" id="Layer_1" xmlns="http://www.w3.org/2000/svg" xmlns:xlink="http://www.w3.org/1999/xlink" x="0px" y="0px"
	 width="68.182px" height="68.181px" viewBox="0 0 68.182 68.181" style="enable-background:new 0 0 68.182 68.181;"
	 xml:space="preserve">
<path style="&st0;" d="M34.091,0C15.263,0,0,15.263,0,34.091c0,18.828,15.263,34.09,34.091,34.09s34.091-15.262,34.091-34.09
	C68.182,15.263,52.918,0,34.091,0z M24.38,47.308c-2.345,0-4.253-1.896-4.253-4.234c0-2.333,1.908-4.24,4.253-4.24
	c2.351,0,4.253,1.907,4.253,4.24C28.633,45.412,26.73,47.308,24.38,47.308z M35.062,47.345c0-4.004-1.559-7.765-4.377-10.583
	c-2.819-2.825-6.566-4.377-10.552-4.377v-6.124c11.618,0,21.072,9.454,21.072,21.084H35.062z M45.919,47.345
	c0-14.23-11.568-25.812-25.78-25.812v-6.117c17.599,0,31.917,14.324,31.917,31.929H45.919z"/>
</svg>
