<?xml version="1.0" encoding="utf-8"?>
<!-- Generator: Adobe Illustrator 16.2.1, SVG Export Plug-In . SVG Version: 6.00 Build 0)  -->
<!DOCTYPE svg PUBLIC "-//W3C//DTD SVG 1.1//EN" "http://www.w3.org/Graphics/SVG/1.1/DTD/svg11.dtd" [
	<!ENTITY st0 "fill:#0F7DC2;">
]>
<svg version="1.1" id="Layer_1" xmlns="http://www.w3.org/2000/svg" xmlns:xlink="http://www.w3.org/1999/xlink" x="0px" y="0px"
	 width="28px" height="28px" viewBox="0 0 28 28" style="enable-background:new 0 0 28 28;" xml:space="preserve">
<path style="&st0;" d="M14,0C6.3,0,0,6.3,0,14s6.3,14,14,14s14-6.3,14-14S21.7,0,14,0 M19,16h-3v3c0,1.1-0.9,2-2,2c-1.1,0-2-0.9-2-2
	v-3H9c-1.1,0-2-0.9-2-2c0-1.1,0.9-2,2-2h3V9c0-1.1,0.9-2,2-2c1.1,0,2,0.9,2,2v3h3c1.1,0,2,0.9,2,2C21,15.1,20.1,16,19,16"/>
</svg>
