<?xml version="1.0" encoding="utf-8"?>
<!-- Generator: Adobe Illustrator 16.2.1, SVG Export Plug-In . SVG Version: 6.00 Build 0)  -->
<!DOCTYPE svg PUBLIC "-//W3C//DTD SVG 1.1//EN" "http://www.w3.org/Graphics/SVG/1.1/DTD/svg11.dtd" [
	<!ENTITY st0 "fill:#F3703C;">
]>
<svg version="1.1" id="Layer_1" xmlns="http://www.w3.org/2000/svg" xmlns:xlink="http://www.w3.org/1999/xlink" x="0px" y="0px"
	 width="29.059px" height="29.058px" viewBox="291.595 382.177 29.059 29.058"
	 style="enable-background:new 291.595 382.177 29.059 29.058;" xml:space="preserve">
<g>
	<path style="&st0;" d="M307.562,403.068c0.311-0.254,0.512-0.476,1.148-0.476c0.64,0,0.748,0.238,0.875,0.476
		c0.127,0.236,0.146,0.272,0.272,0.2c0.146-0.073,0.22-0.183,0.146-0.366c-0.071-0.182-0.2-0.509-0.418-0.653
		c-0.218-0.147-0.528-0.165-0.821-0.165c-0.291,0-0.453-0.018-0.765,0.109c-0.31,0.127-0.64,0.418-0.84,0.603
		c-0.2,0.183-0.237,0.328-0.127,0.474C307.143,403.416,307.252,403.322,307.562,403.068z"/>
	<path style="&st0;" d="M310.138,403.965c-0.362,0.275-1.186,0.603-2.354,0.603c-1.166,0-1.713-0.235-2.076-0.528
		c-0.057-0.036-0.036-0.036-0.147-0.036c-0.11,0-0.182,0.054-0.272,0.129c-0.092,0.072-0.129,0.254,0,0.381
		c0.802,0.73,2.133,0.677,3.117,0.585c0.983-0.092,1.822-0.676,1.916-0.766c0.127-0.128,0.09-0.238,0.071-0.312
		C310.374,403.947,310.302,403.838,310.138,403.965z"/>
	<path style="&st0;" d="M304.369,397.515c-1.679,0.02-3.008,1.35-3.028,2.771c-0.017,0.804,0.256,1.387,0.803,1.77
		c0.365,0.237,0.692,0.4,1.787,0.4c1.807,0,4.104-2.242,5.162-2.207c0.838,0.037,2.149,2.08,2.808,2.135
		c0.512,0.037,0.784-0.201,1.222-0.839s0.621-1.659,0.621-2.224c0-0.567-0.256-1.515-1.166-1.515c-0.858,0-2.608,1.788-3.521,1.806
		C307.979,399.629,306.501,397.496,304.369,397.515z"/>
	<path style="&st0;" d="M306.126,382.177c-8.025,0-14.531,6.504-14.531,14.53c0,8.023,6.506,14.527,14.531,14.527
		c8.024,0,14.528-6.504,14.528-14.527C320.654,388.681,314.15,382.177,306.126,382.177z M306.197,406.17
		c-4.395,0-8.351-3.464-8.351-8.168c0-4.706,3.664-6.893,4.338-7.24c0.805-0.438,1.389-0.656,2.316-1.385
		c0.438-0.365,0.821-0.876,0.948-2.135c0.658,0.784,1.441,1.696,2.006,2.079c0.911,0.602,1.825,0.839,2.791,1.441
		c0.583,0.365,4.158,2.552,4.158,7.385C314.404,402.979,310.593,406.17,306.197,406.17z"/>
</g>
</svg>
