<?xml version="1.0" encoding="utf-8"?>
<!-- Generator: Adobe Illustrator 16.2.1, SVG Export Plug-In . SVG Version: 6.00 Build 0)  -->
<!DOCTYPE svg PUBLIC "-//W3C//DTD SVG 1.1//EN" "http://www.w3.org/Graphics/SVG/1.1/DTD/svg11.dtd" [
	<!ENTITY st0 "fill:#F3703C;">
]>
<svg version="1.1" id="Layer_1" xmlns="http://www.w3.org/2000/svg" xmlns:xlink="http://www.w3.org/1999/xlink" x="0px" y="0px"
	 width="28.168px" height="28.166px" viewBox="291.732 382.251 28.168 28.166"
	 style="enable-background:new 291.732 382.251 28.168 28.166;" xml:space="preserve">
<path style="&st0;" d="M305.816,382.251c-7.778,0-14.084,6.305-14.084,14.082c0,7.78,6.306,14.084,14.084,14.084
	c7.779,0,14.084-6.305,14.084-14.084C319.9,388.556,313.596,382.251,305.816,382.251 M312.376,391.16l-6.738,5.346l-6.739-5.346
	H312.376z M298.011,391.873l4.749,3.768l-4.749,4.749V391.873z M298.642,401.309l4.982-4.982l1.968,1.561l0.036,0.043l0.01-0.006
	l0.004,0.002l0.016-0.02l2.092-1.659l5.062,5.061L298.642,401.309L298.642,401.309z M313.558,400.504l-4.942-4.944l4.942-3.92
	V400.504z"/>
</svg>
