<?xml version="1.0" encoding="utf-8"?>
<!-- Generator: Adobe Illustrator 16.2.1, SVG Export Plug-In . SVG Version: 6.00 Build 0)  -->
<!DOCTYPE svg PUBLIC "-//W3C//DTD SVG 1.1//EN" "http://www.w3.org/Graphics/SVG/1.1/DTD/svg11.dtd" [
	<!ENTITY st0 "fill:#FFFFFF;">
]>
<svg version="1.1" id="Layer_1" xmlns="http://www.w3.org/2000/svg" xmlns:xlink="http://www.w3.org/1999/xlink" x="0px" y="0px"
	 width="14.934px" height="28.003px" viewBox="0 0 14.934 28.003" style="enable-background:new 0 0 14.934 28.003;"
	 xml:space="preserve">
<path style="&st0;" d="M12.601,0H2.333C1.05,0,0,1.05,0,2.333v23.335c0,1.284,1.05,2.334,2.333,2.334h10.267
	c1.283,0,2.333-1.05,2.333-2.334V2.333C14.934,1.05,13.884,0,12.601,0 M6.068,1.867h2.799c0.258,0,0.466,0.209,0.466,0.467
	c0,0.258-0.208,0.467-0.466,0.467H6.068c-0.258,0-0.467-0.209-0.467-0.467C5.602,2.076,5.811,1.867,6.068,1.867 M7.466,27.069
	c-0.773,0-1.4-0.626-1.4-1.4c0-0.773,0.627-1.399,1.4-1.399c0.775,0,1.401,0.626,1.401,1.399
	C8.868,26.443,8.241,27.069,7.466,27.069 M14.001,23.336H0.935V4.667h13.066V23.336z"/>
</svg>
