<?xml version="1.0" encoding="utf-8"?>
<!-- Generator: Adobe Illustrator 17.0.0, SVG Export Plug-In . SVG Version: 6.00 Build 0)  -->
<!DOCTYPE svg PUBLIC "-//W3C//DTD SVG 1.1//EN" "http://www.w3.org/Graphics/SVG/1.1/DTD/svg11.dtd">
<svg version="1.1" id="Layer_1" xmlns="http://www.w3.org/2000/svg" xmlns:xlink="http://www.w3.org/1999/xlink" x="0px" y="0px"
	 width="26.683px" height="30.043px" viewBox="0 0 26.683 30.043" enable-background="new 0 0 26.683 30.043" xml:space="preserve">
<path fill="#238FCF" d="M19.883,5.526c-3.418-2.042-5.345-4.207-6.026-5.153c0,0-0.241-0.374-0.515-0.374
	c-0.273,0-0.497,0.374-0.497,0.374c-0.672,0.945-2.643,3.121-6.076,5.171C2.886,7.879,0,11.841,0,16.702
	c0,7.368,5.973,13.341,13.341,13.341c7.369,0,13.342-5.973,13.342-13.341C26.683,11.829,23.784,7.855,19.883,5.526z"/>
<g>
	<path fill="#FFFFFF" d="M13.302,18.381c-1.667,0-4.622-3.182-6.819-3.182c-2.198,0-3.561,2.197-3.561,3.561
		c0,1.364,1.288,3.523,3.523,3.523c2.199,0,5.241-2.896,6.854-2.991c0,0-0.014-0.001,0.015,0.001c1.615,0.103,4.651,2.99,6.846,2.99
		c2.235,0,3.523-2.16,3.523-3.523c0-1.364-1.364-3.561-3.561-3.561C17.924,15.199,14.969,18.381,13.302,18.381"/>
	<g>
		<path fill="#FFFFFF" d="M17.115,24.367c-0.013,0.009-1.342,0.908-3.858,0.908c-2.507,0-3.749-0.893-3.761-0.902
			c-0.151-0.111-0.365-0.08-0.476,0.071c-0.112,0.151-0.082,0.363,0.068,0.476c0.056,0.042,1.415,1.037,4.169,1.037
			c2.748,0,4.189-0.989,4.249-1.031c0.154-0.108,0.191-0.319,0.083-0.474C17.482,24.298,17.27,24.26,17.115,24.367z"/>
	</g>
	<g>
		<path fill="#FFFFFF" d="M12.113,21.043c-0.4,0.166-0.989,0.859-1.16,1.067c-0.119,0.146-0.098,0.36,0.047,0.48
			c0.146,0.119,0.36,0.098,0.48-0.047c0.299-0.364,0.727-0.801,0.895-0.871c0.116-0.048,0.51-0.114,0.92-0.106
			c0.486,0.009,0.844,0.069,0.933,0.106c0.169,0.07,0.596,0.507,0.895,0.871c0.119,0.145,0.334,0.167,0.48,0.047
			c0.145-0.12,0.167-0.334,0.047-0.48c-0.171-0.208-0.76-0.901-1.16-1.067c-0.251-0.105-0.775-0.15-1.182-0.158
			C12.857,20.876,12.354,20.942,12.113,21.043z"/>
	</g>
</g>
</svg>
