<?xml version="1.0" encoding="utf-8"?>
<!-- Generator: Adobe Illustrator 16.2.1, SVG Export Plug-In . SVG Version: 6.00 Build 0)  -->
<!DOCTYPE svg PUBLIC "-//W3C//DTD SVG 1.1//EN" "http://www.w3.org/Graphics/SVG/1.1/DTD/svg11.dtd">
<svg version="1.1" id="Layer_1" xmlns="http://www.w3.org/2000/svg" xmlns:xlink="http://www.w3.org/1999/xlink" x="0px" y="0px"
	 width="12.652px" height="10.008px" viewBox="0 0 12.652 10.008" enable-background="new 0 0 12.652 10.008" xml:space="preserve">
<path fill="#BFBFBF" d="M1.763,4.955c0,0.817,0.199,1.471,0.591,1.947c0.398,0.481,0.95,0.724,1.64,0.724
	c0.561,0,1.028-0.182,1.39-0.539C5.74,6.735,5.965,6.272,6.051,5.713l0.024-0.157H5.917H4.963H4.857L4.831,5.661
	C4.774,5.893,4.702,6.068,4.619,6.179c-0.147,0.2-0.357,0.297-0.641,0.297c-0.276,0-0.499-0.116-0.681-0.354
	c-0.187-0.248-0.283-0.636-0.283-1.15c0-0.519,0.094-0.922,0.273-1.198c0.171-0.261,0.397-0.388,0.69-0.388
	c0.294,0,0.507,0.088,0.651,0.269c0.083,0.103,0.152,0.265,0.208,0.48l0.027,0.103h0.104h0.954h0.145L6.061,4.093
	C6.043,3.766,5.93,3.438,5.725,3.117c-0.379-0.578-0.979-0.87-1.784-0.87c-0.606,0-1.112,0.217-1.507,0.647
	C1.989,3.378,1.763,4.073,1.763,4.955L1.763,4.955z"/>
<path fill="#BFBFBF" d="M6.357,4.955c0,0.817,0.197,1.471,0.591,1.947c0.397,0.481,0.95,0.724,1.64,0.724
	c0.562,0,1.027-0.182,1.391-0.539c0.355-0.352,0.581-0.814,0.669-1.373l0.023-0.157h-0.159H9.557H9.452L9.424,5.661
	c-0.058,0.232-0.13,0.407-0.213,0.519c-0.146,0.2-0.355,0.297-0.64,0.297c-0.277,0-0.5-0.116-0.681-0.354
	c-0.188-0.248-0.282-0.636-0.282-1.15c0-0.519,0.092-0.922,0.272-1.198c0.171-0.261,0.396-0.388,0.689-0.388
	c0.294,0,0.508,0.088,0.651,0.269c0.082,0.103,0.152,0.265,0.207,0.48l0.027,0.103h0.105h0.952h0.145l-0.007-0.144
	c-0.019-0.327-0.131-0.655-0.336-0.976c-0.379-0.577-0.979-0.87-1.785-0.87c-0.605,0-1.113,0.217-1.506,0.647
	C6.581,3.378,6.357,4.073,6.357,4.955L6.357,4.955z"/>
<path fill="#BFBFBF" d="M12.653,10.008H-0.001V0h12.653V10.008L12.653,10.008L12.653,10.008z M11.333,3.874
	c0-1.452-1.139-2.628-2.542-2.628H3.694c-1.404,0-2.496,1.176-2.496,2.628V6.07c0,1.452,1.092,2.628,2.496,2.628h5.098
	c1.403,0,2.542-1.177,2.542-2.628V3.874L11.333,3.874z"/>
</svg>
