<?xml version="1.0" encoding="utf-8"?>
<!-- Generator: Adobe Illustrator 16.2.1, SVG Export Plug-In . SVG Version: 6.00 Build 0)  -->
<!DOCTYPE svg PUBLIC "-//W3C//DTD SVG 1.1//EN" "http://www.w3.org/Graphics/SVG/1.1/DTD/svg11.dtd" [
	<!ENTITY st0 "fill:#F3703C;">
]>
<svg version="1.1" id="Layer_1" xmlns="http://www.w3.org/2000/svg" xmlns:xlink="http://www.w3.org/1999/xlink" x="0px" y="0px"
	 width="28.274px" height="28.274px" viewBox="291.77 382.273 28.274 28.274"
	 style="enable-background:new 291.77 382.273 28.274 28.274;" xml:space="preserve">
<path style="&st0;" d="M305.907,382.273c-7.808,0-14.137,6.33-14.137,14.136c0,7.808,6.329,14.138,14.137,14.138
	c7.809,0,14.137-6.33,14.137-14.138C320.044,388.604,313.716,382.273,305.907,382.273 M310.009,390.653h-1.983
	c-0.394,0-0.79,0.411-0.79,0.716v2.04h2.77c-0.111,1.564-0.339,2.995-0.339,2.995h-2.444v8.867h-3.643v-8.867h-1.772v-2.984h1.772
	v-2.44c0-0.447-0.09-3.433,3.731-3.433h2.698V390.653L310.009,390.653z"/>
</svg>
