<?xml version="1.0" encoding="utf-8"?>
<!-- Generator: Adobe Illustrator 16.2.1, SVG Export Plug-In . SVG Version: 6.00 Build 0)  -->
<!DOCTYPE svg PUBLIC "-//W3C//DTD SVG 1.1//EN" "http://www.w3.org/Graphics/SVG/1.1/DTD/svg11.dtd" [
	<!ENTITY st0 "fill:#F3703C;">
]>
<svg version="1.1" id="Layer_1" xmlns="http://www.w3.org/2000/svg" xmlns:xlink="http://www.w3.org/1999/xlink" x="0px" y="0px"
	 width="28.799px" height="28.799px" viewBox="381.659 291.775 28.799 28.799"
	 style="enable-background:new 381.659 291.775 28.799 28.799;" xml:space="preserve">
<g>
	
		<ellipse transform="matrix(0.2623 0.965 -0.965 0.2623 582.0413 -155.8791)" style="&st0;" cx="392.971" cy="302.737" rx="2.638" ry="1.884"/>
	<path style="&st0;" d="M396.058,291.775c-7.951,0-14.398,6.447-14.398,14.4c0,7.953,6.447,14.399,14.398,14.399
		c7.953,0,14.4-6.446,14.4-14.399C410.458,298.222,404.011,291.775,396.058,291.775z M396.794,302.754
		c0,2.236-2.094,2.513-2.094,3.464c0,0.951,2.775,1.714,2.775,4.072c0,3.938-4.872,3.717-4.872,3.717s-4.212,0.152-4.212-3.019
		c0-3.174,4.779-3.045,5.025-3.045c-0.061-0.728-0.547-0.606-0.547-0.965v-0.889c0,0-3.615,0.406-3.615-3.095
		c0-3.503,4.137-3.604,4.137-3.604h4.084c0,0.623-1.863,0.403-1.863,0.736C396.669,300.605,396.794,301.414,396.794,302.754z
		 M405.142,303.072h-2.844v2.842h-0.836v-2.842h-2.842v-0.836h2.842v-2.845h0.836v2.845h2.844V303.072z"/>
	
		<ellipse transform="matrix(0.9977 -0.0677 0.0677 0.9977 -20.128 27.3115)" style="&st0;" cx="393.114" cy="310.789" rx="3.06" ry="2.232"/>
</g>
</svg>
