<?xml version="1.0" encoding="utf-8"?>
<!-- Generator: Adobe Illustrator 17.0.0, SVG Export Plug-In . SVG Version: 6.00 Build 0)  -->
<!DOCTYPE svg PUBLIC "-//W3C//DTD SVG 1.1//EN" "http://www.w3.org/Graphics/SVG/1.1/DTD/svg11.dtd">
<svg version="1.1" id="Layer_1" xmlns="http://www.w3.org/2000/svg" xmlns:xlink="http://www.w3.org/1999/xlink" x="0px" y="0px"
	 width="7.486px" height="8.984px" viewBox="0 0 7.486 8.984" enable-background="new 0 0 7.486 8.984" xml:space="preserve">
<path fill="#BFBFBF" d="M6.364,3.743V2.62c0,0,0-2.62-2.62-2.62s-2.62,2.62-2.62,2.62v1.123H0v5.241h7.486V3.743H6.364z
	 M4.117,6.634v1.227H3.368V6.634c-0.222-0.13-0.375-0.368-0.375-0.645c0-0.413,0.335-0.748,0.748-0.748S4.49,5.576,4.49,5.989
	C4.491,6.266,4.34,6.505,4.117,6.634 M5.239,3.743H2.246V2.62c0.004-0.314,0-1.498,1.498-1.498S5.236,2.312,5.239,2.62V3.743z"/>
</svg>
