<?xml version="1.0" encoding="utf-8"?>
<!-- Generator: Adobe Illustrator 17.0.0, SVG Export Plug-In . SVG Version: 6.00 Build 0)  -->
<!DOCTYPE svg PUBLIC "-//W3C//DTD SVG 1.1//EN" "http://www.w3.org/Graphics/SVG/1.1/DTD/svg11.dtd">
<svg version="1.1" id="Layer_1" xmlns="http://www.w3.org/2000/svg" xmlns:xlink="http://www.w3.org/1999/xlink" x="0px" y="0px"
	 width="149.491px" height="24.261px" viewBox="0 0 149.491 24.261" enable-background="new 0 0 149.491 24.261"
	 xml:space="preserve">
<rect x="0" y="0.38" fill="#22215E" width="36.917" height="23.5"/>
<g>
	<g>
		<g>
			<circle fill="#ED1C2E" cx="11.511" cy="12.13" r="10.35"/>
			<g>
				<path fill="#FCB131" d="M25.406,1.781c-2.675,0-5.112,1.015-6.948,2.679c-0.374,0.339-0.723,0.706-1.044,1.095h2.09
					c0.286,0.347,0.548,0.714,0.789,1.096h-3.67c-0.219,0.353-0.419,0.718-0.597,1.096h4.863c0.166,0.355,0.311,0.721,0.438,1.096
					H15.59c-0.121,0.358-0.22,0.723-0.302,1.097h6.339c0.153,0.707,0.234,1.439,0.234,2.191c0,1.149-0.188,2.255-0.534,3.289H15.59
					c0.125,0.375,0.271,0.741,0.436,1.095h4.863c-0.179,0.379-0.376,0.745-0.598,1.097h-3.669c0.24,0.382,0.504,0.748,0.791,1.095
					h2.09c-0.322,0.39-0.671,0.757-1.046,1.097c1.836,1.664,4.273,2.677,6.948,2.677c5.716,0,10.35-4.633,10.35-10.35
					C35.756,6.415,31.122,1.781,25.406,1.781z"/>
			</g>
		</g>
		<path fill="#FCB131" d="M34.376,17.899c0-0.184,0.15-0.334,0.335-0.334c0.185,0,0.334,0.15,0.334,0.334
			c0,0.185-0.149,0.335-0.334,0.335C34.526,18.235,34.376,18.084,34.376,17.899z M34.711,18.154c0.142,0,0.255-0.114,0.255-0.255
			c0-0.141-0.113-0.253-0.255-0.253c-0.14,0-0.254,0.113-0.254,0.253C34.457,18.04,34.571,18.154,34.711,18.154z M34.666,18.047
			h-0.069v-0.293h0.125c0.024,0,0.053,0,0.075,0.013c0.022,0.017,0.037,0.045,0.037,0.073c0,0.034-0.02,0.065-0.052,0.077
			l0.056,0.13h-0.077l-0.046-0.115h-0.049V18.047z M34.666,17.88h0.038c0.014,0,0.029,0.001,0.042-0.006
			c0.011-0.007,0.017-0.02,0.017-0.034c0-0.011-0.007-0.024-0.017-0.03c-0.012-0.007-0.031-0.006-0.044-0.006h-0.036V17.88z"/>
	</g>
	<g>
		<g>
			<path fill="#003473" d="M9.094,13.264c-0.119-0.013-0.17-0.017-0.251-0.017c-0.637,0-0.96,0.218-0.96,0.65
				c0,0.266,0.158,0.434,0.403,0.434C8.744,14.331,9.074,13.896,9.094,13.264z M9.911,15.167c-0.15,0-0.932,0-0.932,0l0.022-0.443
				c-0.284,0.35-0.662,0.517-1.178,0.517c-0.608,0-1.026-0.476-1.026-1.166c0-1.04,0.727-1.646,1.973-1.646
				c0.128,0,0.291,0.012,0.459,0.033c0.035-0.141,0.042-0.202,0.042-0.277c0-0.283-0.194-0.389-0.72-0.389
				c-0.549-0.005-1.003,0.131-1.19,0.192c0.013-0.071,0.157-0.959,0.157-0.959c0.559-0.165,0.928-0.227,1.343-0.227
				c0.966,0,1.478,0.433,1.476,1.252c0.002,0.22-0.034,0.49-0.09,0.846C10.148,13.517,9.939,14.843,9.911,15.167z"/>
			<polygon fill="#003473" points="6.327,15.167 5.203,15.167 5.847,11.131 4.41,15.167 3.645,15.167 3.55,11.153 2.873,15.167 
				1.821,15.167 2.699,9.917 4.315,9.917 4.413,12.855 5.398,9.917 7.195,9.917 			"/>
			<path fill="#003473" d="M26.795,13.264c-0.119-0.013-0.17-0.017-0.251-0.017c-0.637,0-0.959,0.218-0.959,0.65
				c0,0.266,0.157,0.434,0.402,0.434C26.445,14.331,26.775,13.896,26.795,13.264z M27.613,15.167c-0.151,0-0.933,0-0.933,0
				l0.022-0.443c-0.284,0.35-0.662,0.517-1.177,0.517c-0.61,0-1.027-0.476-1.027-1.166c0-1.04,0.728-1.646,1.973-1.646
				c0.128,0,0.291,0.012,0.458,0.033c0.035-0.141,0.044-0.202,0.044-0.277c0-0.283-0.195-0.389-0.72-0.389
				c-0.55-0.005-1.004,0.131-1.19,0.192c0.014-0.071,0.157-0.959,0.157-0.959c0.56-0.165,0.929-0.227,1.343-0.227
				c0.967,0,1.478,0.433,1.476,1.252c0.003,0.22-0.033,0.49-0.092,0.846C27.851,13.517,27.64,14.843,27.613,15.167z"/>
			<path fill="#003473" d="M14.904,15.101c-0.308,0.097-0.547,0.139-0.807,0.139c-0.574,0-0.889-0.33-0.889-0.938
				c-0.008-0.189,0.083-0.686,0.154-1.138c0.064-0.399,0.488-2.913,0.488-2.913h1.116l-0.131,0.645h0.675l-0.152,1.026h-0.677
				c-0.13,0.812-0.314,1.824-0.316,1.958c0,0.22,0.117,0.316,0.384,0.316c0.128,0,0.227-0.013,0.304-0.04L14.904,15.101z"/>
			<path fill="#003473" d="M18.329,15.067c-0.384,0.118-0.753,0.175-1.146,0.173c-1.251-0.002-1.902-0.654-1.902-1.905
				c0-1.459,0.829-2.534,1.954-2.534c0.922,0,1.51,0.601,1.51,1.545c0,0.313-0.041,0.619-0.139,1.05h-2.224
				c-0.075,0.619,0.321,0.877,0.971,0.877c0.399,0,0.761-0.083,1.161-0.269L18.329,15.067z M17.701,12.535
				c0.007-0.089,0.118-0.762-0.52-0.762c-0.356,0-0.61,0.271-0.713,0.762H17.701z"/>
			<path fill="#003473" d="M10.585,12.247c0,0.54,0.262,0.912,0.855,1.191c0.455,0.214,0.524,0.278,0.524,0.471
				c0,0.267-0.199,0.387-0.645,0.387c-0.335,0-0.646-0.052-1.007-0.169c0,0-0.147,0.942-0.154,0.987
				c0.256,0.055,0.483,0.108,1.17,0.126c1.186,0,1.732-0.451,1.732-1.426c0-0.587-0.228-0.932-0.791-1.19
				c-0.472-0.217-0.526-0.265-0.526-0.464c0-0.231,0.188-0.35,0.55-0.35c0.222,0,0.522,0.024,0.809,0.065l0.158-0.991
				c-0.29-0.046-0.731-0.083-0.987-0.083C11.015,10.801,10.581,11.458,10.585,12.247z"/>
			<path fill="#003473" d="M23.795,10.914c0.312,0,0.603,0.081,1.005,0.284l0.182-1.14c-0.164-0.065-0.743-0.444-1.234-0.444
				c-0.752,0-1.389,0.374-1.835,0.989c-0.652-0.216-0.921,0.22-1.25,0.655l-0.291,0.068c0.021-0.144,0.042-0.285,0.036-0.43h-1.033
				c-0.141,1.322-0.39,2.661-0.586,3.983l-0.051,0.287h1.124c0.188-1.22,0.29-2,0.354-2.529l0.423-0.233
				c0.062-0.236,0.262-0.316,0.657-0.306c-0.051,0.278-0.079,0.572-0.079,0.875c0,1.397,0.755,2.267,1.964,2.267
				c0.312,0,0.579-0.041,0.993-0.153l0.197-1.196c-0.373,0.183-0.678,0.269-0.955,0.269c-0.653,0-1.047-0.484-1.047-1.28
				C22.368,11.724,22.954,10.914,23.795,10.914z"/>
			<path fill="#003473" d="M33.307,9.917l-0.25,1.516c-0.306-0.403-0.636-0.696-1.072-0.696c-0.566,0-1.082,0.43-1.42,1.062
				c-0.472-0.097-0.958-0.264-0.958-0.264v0.004c0.037-0.353,0.054-0.569,0.05-0.643h-1.033c-0.139,1.322-0.391,2.661-0.585,3.983
				l-0.051,0.287h1.123c0.152-0.986,0.27-1.804,0.354-2.454c0.383-0.347,0.576-0.649,0.965-0.629
				c-0.174,0.415-0.272,0.894-0.272,1.385c0,1.067,0.539,1.772,1.355,1.772c0.412,0,0.727-0.142,1.036-0.471l-0.053,0.397h1.062
				l0.856-5.249H33.307z M31.901,14.18c-0.383,0-0.576-0.283-0.576-0.841c0-0.839,0.362-1.434,0.872-1.434
				c0.386,0,0.596,0.294,0.596,0.837C32.793,13.587,32.425,14.18,31.901,14.18z"/>
		</g>
		<g>
			<polygon fill="#FFFFFF" points="6.65,14.854 5.525,14.854 6.171,10.819 4.733,14.854 3.967,14.854 3.872,10.843 3.196,14.854 
				2.145,14.854 3.023,9.605 4.64,9.605 4.685,12.855 5.773,9.605 7.519,9.605 			"/>
			<path fill="#FFFFFF" d="M9.418,12.953c-0.118-0.013-0.17-0.018-0.252-0.018c-0.637,0-0.958,0.219-0.958,0.65
				c0,0.265,0.156,0.435,0.402,0.435C9.068,14.02,9.398,13.584,9.418,12.953z M10.234,14.854c-0.149,0-0.931,0-0.931,0l0.021-0.441
				c-0.284,0.349-0.663,0.516-1.178,0.516c-0.609,0-1.026-0.475-1.026-1.166c0-1.04,0.726-1.646,1.972-1.646
				c0.128,0,0.291,0.012,0.458,0.033c0.034-0.142,0.045-0.201,0.045-0.277c0-0.283-0.196-0.388-0.72-0.388
				c-0.551-0.006-1.004,0.131-1.191,0.191c0.013-0.071,0.156-0.96,0.156-0.96c0.56-0.164,0.929-0.226,1.345-0.226
				c0.965,0,1.476,0.434,1.476,1.252c0.001,0.22-0.035,0.491-0.092,0.847C10.473,13.206,10.264,14.532,10.234,14.854z"/>
			<path fill="#FFFFFF" d="M25.305,9.747l-0.184,1.139c-0.401-0.201-0.692-0.282-1.003-0.282c-0.84,0-1.429,0.81-1.429,1.966
				c0,0.797,0.396,1.279,1.05,1.279c0.276,0,0.581-0.086,0.954-0.269l-0.197,1.196c-0.414,0.113-0.683,0.154-0.993,0.154
				c-1.21,0-1.964-0.869-1.964-2.266c0-1.878,1.043-3.189,2.531-3.189C24.561,9.473,25.14,9.682,25.305,9.747z"/>
			<path fill="#FFFFFF" d="M27.118,12.953c-0.118-0.013-0.169-0.018-0.251-0.018c-0.637,0-0.959,0.219-0.959,0.65
				c0,0.265,0.157,0.435,0.403,0.435C26.769,14.02,27.099,13.584,27.118,12.953z M27.936,14.854c-0.148,0-0.931,0-0.931,0
				l0.021-0.441c-0.284,0.349-0.664,0.516-1.178,0.516c-0.609,0-1.026-0.475-1.026-1.166c0-1.04,0.726-1.646,1.973-1.646
				c0.127,0,0.29,0.012,0.457,0.033c0.034-0.142,0.044-0.201,0.044-0.277c0-0.283-0.195-0.388-0.72-0.388
				c-0.55-0.006-1.004,0.131-1.19,0.191c0.012-0.071,0.156-0.96,0.156-0.96c0.56-0.164,0.929-0.226,1.345-0.226
				c0.965,0,1.477,0.434,1.476,1.252c0.002,0.22-0.036,0.491-0.092,0.847C28.174,13.206,27.965,14.532,27.936,14.854z"/>
			<path fill="#FFFFFF" d="M15.227,14.79c-0.307,0.097-0.547,0.139-0.807,0.139c-0.574,0-0.888-0.329-0.888-0.938
				c-0.008-0.188,0.082-0.685,0.153-1.137c0.065-0.4,0.487-2.914,0.487-2.914h1.117l-0.131,0.646h0.574l-0.153,1.026h-0.575
				c-0.13,0.812-0.315,1.823-0.318,1.957c0,0.221,0.118,0.317,0.388,0.317c0.128,0,0.226-0.014,0.302-0.04L15.227,14.79z"/>
			<path fill="#FFFFFF" d="M18.652,14.756c-0.384,0.117-0.755,0.173-1.146,0.172c-1.251-0.001-1.902-0.654-1.902-1.904
				c0-1.46,0.828-2.534,1.955-2.534c0.92,0,1.508,0.601,1.508,1.545c0,0.313-0.04,0.619-0.137,1.05h-2.224
				c-0.076,0.62,0.319,0.877,0.97,0.877c0.4,0,0.761-0.082,1.163-0.27L18.652,14.756z M18.025,12.224
				c0.005-0.089,0.118-0.762-0.52-0.762c-0.357,0-0.61,0.272-0.715,0.762H18.025z"/>
			<path fill="#FFFFFF" d="M10.908,11.935c0,0.541,0.261,0.913,0.856,1.193c0.454,0.213,0.525,0.276,0.525,0.471
				c0,0.265-0.201,0.385-0.646,0.385c-0.335,0-0.647-0.052-1.008-0.168c0,0-0.147,0.942-0.153,0.986
				c0.255,0.056,0.482,0.106,1.169,0.126c1.186,0,1.733-0.451,1.733-1.427c0-0.587-0.23-0.931-0.792-1.19
				c-0.472-0.216-0.525-0.264-0.525-0.463c0-0.231,0.186-0.349,0.55-0.349c0.221,0,0.52,0.024,0.808,0.064l0.16-0.989
				c-0.291-0.046-0.733-0.083-0.989-0.083C11.34,10.49,10.903,11.147,10.908,11.935z"/>
			<path fill="#FFFFFF" d="M33.883,14.854H32.82l0.052-0.396c-0.308,0.329-0.624,0.471-1.035,0.471
				c-0.816,0-1.357-0.704-1.357-1.772c0-1.419,0.838-2.617,1.828-2.617c0.436,0,0.766,0.178,1.073,0.582l0.25-1.517h1.108
				L33.883,14.854z M32.225,13.869c0.523,0,0.891-0.594,0.891-1.44c0-0.542-0.209-0.837-0.595-0.837
				c-0.51,0-0.872,0.594-0.872,1.434C31.648,13.585,31.843,13.869,32.225,13.869z"/>
			<path fill="#FFFFFF" d="M28.948,10.585c-0.141,1.321-0.392,2.66-0.586,3.982l-0.052,0.287h1.124
				c0.402-2.611,0.498-3.12,1.13-3.056c0.1-0.534,0.287-1.002,0.426-1.238c-0.471-0.098-0.734,0.168-1.077,0.673
				c0.026-0.219,0.076-0.431,0.066-0.648H28.948z"/>
			<path fill="#FFFFFF" d="M19.698,10.585c-0.142,1.321-0.392,2.66-0.587,3.982l-0.051,0.287h1.124
				c0.403-2.611,0.498-3.12,1.128-3.056c0.102-0.534,0.289-1.002,0.427-1.238c-0.47-0.098-0.733,0.168-1.077,0.673
				c0.028-0.219,0.077-0.431,0.068-0.648H19.698z"/>
			<g>
				<path fill="#FFFFFF" d="M34.376,14.52c0-0.185,0.15-0.334,0.335-0.334c0.184,0,0.332,0.149,0.332,0.334
					c0,0.185-0.149,0.334-0.332,0.334C34.526,14.854,34.376,14.705,34.376,14.52z M34.711,14.774c0.142,0,0.254-0.114,0.254-0.254
					c0-0.14-0.112-0.253-0.254-0.253c-0.14,0-0.255,0.113-0.255,0.253C34.456,14.66,34.571,14.774,34.711,14.774z M34.665,14.667
					h-0.068v-0.293h0.125c0.024,0,0.051,0,0.074,0.015c0.023,0.015,0.037,0.043,0.037,0.073c0,0.033-0.019,0.065-0.051,0.076
					l0.055,0.129H34.76l-0.045-0.117h-0.05V14.667z M34.665,14.5h0.039c0.013,0,0.029,0.002,0.041-0.006
					c0.012-0.006,0.018-0.021,0.018-0.034c0-0.011-0.007-0.024-0.017-0.03c-0.012-0.007-0.032-0.005-0.045-0.005h-0.036V14.5z"/>
			</g>
		</g>
	</g>
</g>
<path fill="#FFFFFF" d="M43.447,16.804L43.447,16.804C43.447,16.772,43.445,16.774,43.447,16.804z"/>
<g>
	<rect x="41.787" y="0.448" fill="#0058A0" stroke="#0058A0" stroke-width="0.5144" width="37.425" height="23.364"/>
	<path fill="#FFFFFF" d="M43.529,16.782c0.01,0.2,0.155,1.661,1.856,1.661c10.504,0,23.299,0,33.826,0l0.001-17.995H43.532
		C43.529,4.358,43.529,13.656,43.529,16.782L43.529,16.782z"/>
	<g>
		<path fill="#0058A0" d="M53.713,4.203l-2.601,7.014l-0.278-1.425c-0.629-1.702-1.853-3.254-3.679-4.295l2.377,8.982h2.812
			l4.182-10.276H53.713"/>
		<polyline fill="#0058A0" points="55.94,14.483 57.602,4.194 60.26,4.194 58.597,14.483 55.94,14.483 		"/>
		<path fill="#0058A0" d="M68.232,4.449c-0.524-0.209-1.354-0.434-2.379-0.434c-2.629,0-4.476,1.396-4.492,3.393
			c-0.017,1.483,1.32,2.306,2.327,2.799c1.035,0.504,1.383,0.827,1.379,1.277c-0.01,0.687-0.829,1-1.592,1
			c-1.062,0-1.627-0.153-2.497-0.54l-0.346-0.162l-0.371,2.301c0.621,0.291,1.767,0.536,2.962,0.552
			c2.788,0,4.602-1.382,4.623-3.517c0.013-1.172-0.697-2.062-2.233-2.796c-0.925-0.476-1.5-0.791-1.49-1.275
			c0.001-0.427,0.481-0.884,1.524-0.884c0.869-0.018,1.492,0.183,1.987,0.395l0.237,0.12L68.232,4.449"/>
		<path fill="#0058A0" d="M75.044,4.204h-2.052c-0.637,0-1.112,0.185-1.395,0.853l-3.943,9.427h2.792c0,0,0.456-1.267,0.558-1.546
			c0.307,0,3.014,0.006,3.4,0.006c0.083,0.36,0.326,1.54,0.326,1.54h2.466L75.044,4.204 M71.769,10.835
			c0.222-0.59,1.06-2.875,1.06-2.875c-0.018,0.028,0.215-0.597,0.353-0.982l0.177,0.89c0,0,0.511,2.454,0.616,2.968
			C73.561,10.835,72.288,10.835,71.769,10.835z"/>
		<path fill="#FAA61A" d="M48.701,4.2h-4.285l-0.023,0.177c3.329,0.85,5.527,2.945,6.441,5.417l-0.93-4.727
			C49.744,4.414,49.277,4.223,48.701,4.2z"/>
	</g>
</g>
<g>
	
		<radialGradient id="SVGID_1_" cx="-61.1799" cy="1027.9843" r="22.683" gradientTransform="matrix(1 0 0 -1 149.0522 1032.2227)" gradientUnits="userSpaceOnUse">
		<stop  offset="0" style="stop-color:#9FD4F3"/>
		<stop  offset="0.0711" style="stop-color:#99D2F2"/>
		<stop  offset="0.1575" style="stop-color:#8BCDF1"/>
		<stop  offset="0.2516" style="stop-color:#71C6EF"/>
		<stop  offset="0.3514" style="stop-color:#51BCEA"/>
		<stop  offset="0.4546" style="stop-color:#21ADE4"/>
		<stop  offset="0.5" style="stop-color:#1AA6DF"/>
		<stop  offset="1" style="stop-color:#3078BC"/>
	</radialGradient>
	<path fill="url(#SVGID_1_)" d="M107.779,0H83.607v24.261h24.172v-8.007c0.098-0.139,0.144-0.316,0.144-0.533
		c0-0.249-0.046-0.403-0.144-0.532"/>
	<path fill="#FFFFFF" d="M85.786,10.498L85.32,9.365l-0.462,1.133 M96.03,10.047c-0.094,0.056-0.204,0.058-0.336,0.058h-0.825V9.474
		h0.837c0.118,0,0.24,0.006,0.321,0.052c0.089,0.041,0.144,0.129,0.144,0.251C96.171,9.901,96.119,10.001,96.03,10.047z
		 M101.919,10.498l-0.472-1.133l-0.467,1.133H101.919z M90.942,11.725h-0.696l-0.003-2.226l-0.984,2.226h-0.597l-0.988-2.228v2.228
		h-1.383l-0.26-0.634h-1.414l-0.265,0.634h-0.737l1.217-2.842h1.009l1.155,2.691V8.882h1.109l0.889,1.929l0.817-1.929h1.131V11.725
		L90.942,11.725z M93.718,11.725h-2.269V8.882h2.269v0.591h-1.589v0.513h1.552v0.582h-1.552v0.568h1.589V11.725z M96.919,9.648
		c0,0.453-0.303,0.687-0.479,0.758c0.149,0.056,0.276,0.156,0.336,0.239c0.097,0.141,0.113,0.267,0.113,0.521v0.559h-0.686
		l-0.002-0.358c0-0.171,0.017-0.417-0.107-0.554c-0.1-0.1-0.25-0.122-0.495-0.122h-0.729v1.034h-0.68V8.882h1.562
		c0.348,0,0.604,0.009,0.823,0.136C96.79,9.146,96.919,9.331,96.919,9.648z M98.007,11.725h-0.693V8.882h0.693V11.725z
		 M106.05,11.725h-0.963l-1.288-2.133v2.133h-1.385l-0.265-0.634h-1.409l-0.258,0.634h-0.795c-0.331,0-0.748-0.073-0.986-0.314
		c-0.237-0.241-0.361-0.568-0.361-1.085c0-0.422,0.074-0.807,0.365-1.112c0.22-0.227,0.563-0.331,1.031-0.331h0.658v0.608h-0.642
		c-0.248,0-0.389,0.037-0.525,0.169c-0.116,0.12-0.194,0.346-0.194,0.644c0,0.305,0.06,0.524,0.186,0.667
		c0.105,0.113,0.295,0.146,0.475,0.146h0.305l0.958-2.235h1.018l1.15,2.688V8.882h1.035l1.194,1.979V8.882h0.696V11.725
		L106.05,11.725z M83.607,12.283h1.16l0.261-0.631h0.587l0.261,0.631h2.284V11.8l0.205,0.484h1.185l0.205-0.492v0.49h5.677
		l-0.004-1.037h0.11c0.076,0.003,0.1,0.01,0.1,0.137v0.9h2.935v-0.241c0.238,0.127,0.606,0.241,1.091,0.241h1.236l0.262-0.631h0.586
		l0.26,0.631h2.38v-0.6l0.36,0.6h1.907V8.318h-1.887v0.468l-0.266-0.468h-1.936v0.468l-0.242-0.468h-2.618
		c-0.438,0-0.822,0.062-1.134,0.232V8.318h-1.805V8.55C96.57,8.375,96.3,8.318,96.001,8.318h-6.596l-0.443,1.024l-0.455-1.024H86.43
		v0.468l-0.229-0.468H84.43l-0.822,1.886V12.283L83.607,12.283z"/>
	<path fill="#FFFFFF" d="M107.779,14.38h-1.237c-0.124,0-0.206,0.004-0.274,0.051c-0.072,0.046-0.101,0.115-0.101,0.205
		c0,0.107,0.061,0.18,0.149,0.211c0.071,0.024,0.148,0.032,0.261,0.032l0.368,0.01c0.372,0.009,0.62,0.073,0.772,0.229
		c0.026,0.022,0.043,0.046,0.062,0.07 M107.779,16.254c-0.164,0.242-0.485,0.364-0.921,0.364h-1.312v-0.61h1.308
		c0.129,0,0.219-0.017,0.274-0.07c0.047-0.044,0.081-0.108,0.081-0.186c0-0.083-0.034-0.148-0.084-0.188
		c-0.049-0.043-0.12-0.063-0.24-0.063c-0.638-0.021-1.433,0.02-1.433-0.88c0-0.412,0.261-0.846,0.975-0.846h1.353v-0.566h-1.257
		c-0.38,0-0.655,0.09-0.85,0.232v-0.232h-1.86c-0.298,0-0.646,0.073-0.812,0.232v-0.232h-3.32v0.232
		c-0.265-0.191-0.71-0.232-0.916-0.232h-2.191v0.232c-0.209-0.203-0.674-0.232-0.958-0.232h-2.451l-0.562,0.607l-0.524-0.607h-3.663
		v3.966h3.594l0.578-0.616l0.545,0.616l2.215,0.003v-0.933h0.218c0.293,0.005,0.64-0.008,0.946-0.14v1.07h1.827v-1.033h0.088
		c0.112,0,0.123,0.004,0.123,0.117v0.916h5.551c0.353,0,0.721-0.089,0.925-0.253v0.253h1.76c0.366,0,0.725-0.051,0.996-0.183V16.254
		L107.779,16.254z M105.07,15.119c0.132,0.137,0.202,0.31,0.202,0.603c0,0.611-0.382,0.897-1.066,0.897h-1.323v-0.61h1.318
		c0.129,0,0.219-0.017,0.276-0.07c0.047-0.044,0.08-0.108,0.08-0.186c0-0.083-0.035-0.148-0.082-0.188
		c-0.052-0.043-0.124-0.063-0.243-0.063c-0.635-0.021-1.43,0.02-1.43-0.88c0-0.412,0.258-0.846,0.971-0.846h1.362v0.605h-1.246
		c-0.124,0-0.205,0.005-0.273,0.051c-0.073,0.046-0.102,0.115-0.102,0.205c0,0.107,0.063,0.18,0.149,0.211
		c0.071,0.025,0.148,0.033,0.264,0.033l0.367,0.009C104.663,14.899,104.916,14.963,105.07,15.119z M98.939,14.943
		c-0.092,0.054-0.204,0.059-0.337,0.059h-0.825v-0.639h0.838c0.12,0,0.242,0.002,0.324,0.051c0.087,0.046,0.141,0.134,0.141,0.256
		S99.026,14.89,98.939,14.943z M99.35,15.297c0.15,0.056,0.274,0.156,0.332,0.239c0.097,0.139,0.11,0.268,0.114,0.519v0.564h-0.685
		v-0.356c0-0.171,0.017-0.425-0.108-0.556c-0.101-0.102-0.251-0.126-0.499-0.126h-0.727v1.038h-0.682v-2.843h1.569
		c0.343,0,0.595,0.015,0.816,0.134c0.215,0.129,0.349,0.307,0.349,0.631C99.83,14.994,99.528,15.226,99.35,15.297z M100.207,13.775
		h2.268v0.588h-1.591v0.517h1.552v0.58h-1.552v0.566l1.591,0.002v0.59h-2.268V13.775z M95.624,15.087h-0.878v-0.724h0.885
		c0.246,0,0.416,0.1,0.416,0.349C96.047,14.957,95.885,15.087,95.624,15.087z M94.068,16.359l-1.044-1.158l1.044-1.121V16.359z
		 M91.374,16.025h-1.67v-0.566h1.492v-0.58h-1.492v-0.517h1.703l0.744,0.829L91.374,16.025z M96.775,14.711
		c0,0.79-0.589,0.953-1.182,0.953h-0.848v0.954h-1.321l-0.837-0.941l-0.869,0.941h-2.691v-2.843h2.733l0.836,0.932l0.863-0.932
		h2.171C96.171,13.775,96.775,13.924,96.775,14.711z"/>
</g>
<g>
	<path fill="#F58220" d="M149.22,13.456c0,0-10.121,7.141-28.657,10.339h28.657V13.456z"/>
	<path fill="#231F20" d="M149.356,0.197l-37.18,0.002l0.001,23.865l37.313,0V0.197H149.356z M149.222,0.467
		c0,0.265,0,23.059,0,23.326c-0.268,0-36.505,0.001-36.774,0.001c0-0.266,0-23.06,0-23.325
		C112.715,0.469,148.952,0.467,149.222,0.467z"/>
	<path fill="#E83530" d="M145.663,20.866"/>
	
		<radialGradient id="SVGID_2_" cx="125.2988" cy="-477.1389" r="2.72" gradientTransform="matrix(1 0 0 1 6.416 486.083)" gradientUnits="userSpaceOnUse">
		<stop  offset="0.0056" style="stop-color:#FFEFE1"/>
		<stop  offset="0.1092" style="stop-color:#FFEAD8"/>
		<stop  offset="0.2782" style="stop-color:#FDDCC0"/>
		<stop  offset="0.4917" style="stop-color:#FBC698"/>
		<stop  offset="0.7412" style="stop-color:#F8A761"/>
		<stop  offset="1" style="stop-color:#F58220"/>
	</radialGradient>
	<path fill="url(#SVGID_2_)" d="M131.719,6.255c-1.521,0-2.755,1.188-2.755,2.654c0,1.559,1.181,2.724,2.755,2.724
		c1.534,0,2.747-1.18,2.747-2.693C134.466,7.436,133.261,6.255,131.719,6.255z"/>
	<path fill="#001722" d="M116.083,6.352h-1.481v5.165h1.474c0.781,0,1.347-0.186,1.842-0.596c0.589-0.488,0.937-1.223,0.937-1.984
		C118.854,7.412,117.716,6.352,116.083,6.352z M117.26,10.231c-0.318,0.287-0.728,0.411-1.379,0.411h-0.271V7.227h0.271
		c0.651,0,1.045,0.116,1.379,0.418c0.349,0.31,0.557,0.79,0.557,1.285C117.816,9.426,117.608,9.922,117.26,10.231z"/>
	<rect x="119.319" y="6.352" fill="#001722" width="1.007" height="5.165"/>
	<path fill="#001722" d="M122.789,8.333c-0.604-0.224-0.782-0.372-0.782-0.649c0-0.326,0.316-0.573,0.751-0.573
		c0.302,0,0.55,0.124,0.813,0.417l0.526-0.688c-0.434-0.38-0.952-0.574-1.519-0.574c-0.912,0-1.61,0.635-1.61,1.479
		c0,0.713,0.325,1.077,1.271,1.418c0.395,0.139,0.596,0.231,0.697,0.294c0.201,0.132,0.302,0.317,0.302,0.534
		c0,0.418-0.333,0.728-0.783,0.728c-0.479,0-0.866-0.24-1.099-0.689l-0.65,0.628c0.464,0.681,1.021,0.983,1.789,0.983
		c1.045,0,1.781-0.698,1.781-1.696C124.276,9.124,123.936,8.752,122.789,8.333z"/>
	<path fill="#001722" d="M124.593,8.937c0,1.519,1.193,2.696,2.727,2.696c0.434,0,0.806-0.085,1.264-0.302v-1.185
		c-0.404,0.403-0.76,0.565-1.217,0.565c-1.015,0-1.735-0.736-1.735-1.782c0-0.991,0.743-1.773,1.688-1.773
		c0.48,0,0.845,0.17,1.264,0.581V6.552c-0.441-0.224-0.807-0.316-1.24-0.316C125.817,6.235,124.593,7.436,124.593,8.937z"/>
	<polygon fill="#001722" points="136.745,9.821 135.366,6.352 134.267,6.352 136.458,11.648 137.001,11.648 139.231,6.352 
		138.14,6.352 	"/>
	<polygon fill="#001722" points="139.688,11.517 142.546,11.517 142.546,10.642 140.696,10.642 140.696,9.247 142.476,9.247 
		142.476,8.373 140.696,8.373 140.696,7.227 142.546,7.227 142.546,6.352 139.688,6.352 	"/>
	<path fill="#001722" d="M146.534,7.876c0-0.967-0.666-1.524-1.828-1.524h-1.494v5.165h1.008V9.441h0.131l1.394,2.076h1.238
		l-1.627-2.176C146.116,9.186,146.534,8.667,146.534,7.876z M144.513,8.729h-0.293V7.164h0.309c0.629,0,0.971,0.264,0.971,0.767
		C145.499,8.449,145.157,8.729,144.513,8.729z"/>
	<path fill="#231F20" d="M147.245,6.736c0-0.09-0.06-0.139-0.172-0.139h-0.146v0.455h0.107V6.875l0.127,0.177h0.135l-0.15-0.188
		C147.21,6.847,147.245,6.8,147.245,6.736z M147.056,6.798h-0.021V6.68h0.021c0.053,0,0.08,0.02,0.08,0.058
		C147.136,6.778,147.108,6.798,147.056,6.798z"/>
	<path fill="#231F20" d="M147.095,6.426c-0.221,0-0.396,0.177-0.396,0.398c0,0.22,0.178,0.398,0.396,0.398
		c0.217,0,0.393-0.179,0.393-0.398C147.487,6.605,147.311,6.426,147.095,6.426z M147.095,7.149c-0.176,0-0.318-0.145-0.318-0.325
		c0-0.182,0.141-0.326,0.318-0.326c0.172,0,0.312,0.148,0.312,0.326S147.267,7.149,147.095,7.149z"/>
	<path fill="#231F20" d="M123.63,12.874l1.348,1.412v-1.338h0.193v1.805l-1.348-1.409v1.332h-0.193V12.874z"/>
	<path fill="#231F20" d="M123.612,12.874v1.82h0.229c0,0,0-1.221,0-1.305c0.059,0.062,1.348,1.409,1.348,1.409V12.93h-0.228
		c0,0,0,1.227,0,1.312c-0.06-0.063-1.348-1.413-1.348-1.413V12.874z M123.648,12.919c0.06,0.061,1.349,1.412,1.349,1.412
		s0-1.33,0-1.366c0.025,0,0.129,0,0.155,0c0,0.035,0,1.659,0,1.744c-0.06-0.062-1.347-1.41-1.347-1.41s0,1.324,0,1.359
		c-0.027,0-0.131,0-0.157,0C123.648,14.623,123.648,13.003,123.648,12.919z"/>
	<path fill="#231F20" d="M126.104,12.948h0.895v0.178h-0.703v0.514h0.683v0.178h-0.683v0.678h0.703v0.179h-0.895V12.948z"/>
	<path fill="#231F20" d="M126.999,12.93h-0.914v1.764h0.933v-0.215c0,0-0.669,0-0.703,0c0-0.033,0-0.609,0-0.643
		c0.034,0,0.683,0,0.683,0v-0.213c0,0-0.648,0-0.683,0c0-0.034,0-0.446,0-0.477c0.034,0,0.703,0,0.703,0V12.93H126.999z
		 M126.981,12.965c0,0.026,0,0.118,0,0.143c-0.035,0-0.703,0-0.703,0v0.55c0,0,0.648,0,0.682,0c0,0.025,0,0.116,0,0.143
		c-0.033,0-0.682,0-0.682,0v0.714c0,0,0.668,0,0.703,0c0,0.026,0,0.117,0,0.143c-0.034,0-0.826,0-0.859,0c0-0.035,0-1.657,0-1.693
		C126.155,12.965,126.947,12.965,126.981,12.965z"/>
	<path fill="#231F20" d="M128.358,14.676h-0.192v-1.55h-0.417v-0.178h1.031v0.178h-0.422V14.676z"/>
	<path fill="#231F20" d="M128.78,12.93h-1.051v0.216c0,0,0.386,0,0.418,0c0,0.034,0,1.548,0,1.548h0.229c0,0,0-1.514,0-1.548
		c0.033,0,0.422,0,0.422,0V12.93H128.78z M128.763,12.965c0,0.026,0,0.118,0,0.143c-0.033,0-0.422,0-0.422,0s0,1.515,0,1.55
		c-0.027,0-0.13,0-0.156,0c0-0.035,0-1.55,0-1.55s-0.385,0-0.417,0c0-0.025,0-0.117,0-0.143
		C127.8,12.965,128.729,12.965,128.763,12.965z"/>
	<path fill="#231F20" d="M130.068,14.243l0.56-1.385l0.559,1.385l0.453-1.295h0.21l-0.663,1.817l-0.559-1.392l-0.56,1.392
		l-0.661-1.817h0.207L130.068,14.243z"/>
	<path fill="#231F20" d="M130.611,12.851c0,0-0.509,1.257-0.542,1.34c-0.029-0.084-0.442-1.262-0.442-1.262h-0.247l0.688,1.887
		c0,0,0.528-1.316,0.56-1.395c0.031,0.079,0.559,1.395,0.559,1.395l0.689-1.887h-0.247c0,0-0.413,1.178-0.442,1.262
		c-0.034-0.083-0.558-1.381-0.558-1.381L130.611,12.851z M130.085,14.249c0,0,0.512-1.266,0.543-1.342
		c0.031,0.077,0.56,1.387,0.56,1.387s0.457-1.305,0.466-1.329c0.02,0,0.133,0,0.17,0c-0.016,0.046-0.607,1.667-0.638,1.75
		c-0.032-0.082-0.558-1.389-0.558-1.389s-0.526,1.307-0.559,1.389c-0.03-0.083-0.62-1.704-0.638-1.75c0.036,0,0.15,0,0.17,0
		c0.009,0.024,0.466,1.329,0.466,1.329L130.085,14.249z"/>
	<path fill="#231F20" d="M134.339,13.813c0,0.497-0.408,0.892-0.9,0.892c-0.494,0-0.901-0.395-0.901-0.892
		c0-0.495,0.407-0.896,0.901-0.896C133.931,12.918,134.339,13.319,134.339,13.813z M132.729,13.812c0,0.389,0.316,0.714,0.709,0.714
		c0.391,0,0.707-0.325,0.707-0.714c0-0.392-0.312-0.716-0.707-0.716C133.042,13.096,132.729,13.419,132.729,13.812z"/>
	<path fill="#231F20" d="M132.519,13.813c0,0.502,0.412,0.91,0.92,0.91c0.506,0,0.918-0.408,0.918-0.91
		c0-0.504-0.412-0.913-0.918-0.913C132.931,12.9,132.519,13.309,132.519,13.813z M132.554,13.813c0-0.484,0.396-0.877,0.885-0.877
		c0.484,0,0.883,0.393,0.883,0.877c0,0.482-0.398,0.874-0.883,0.874C132.95,14.688,132.554,14.295,132.554,13.813z"/>
	<path fill="#231F20" d="M132.71,13.812c0,0.405,0.328,0.733,0.728,0.733c0.398,0,0.725-0.328,0.725-0.733
		c0-0.404-0.326-0.733-0.725-0.733C133.038,13.079,132.71,13.407,132.71,13.812z M132.747,13.812c0-0.384,0.309-0.697,0.691-0.697
		c0.381,0,0.688,0.313,0.688,0.697c0,0.384-0.307,0.697-0.688,0.697C133.056,14.509,132.747,14.195,132.747,13.812z"/>
	<path fill="#231F20" d="M135.364,14.676h-0.191v-1.728h0.25c0.328,0,0.631,0.087,0.631,0.477c0,0.266-0.166,0.454-0.432,0.476
		l0.549,0.775h-0.236l-0.521-0.759h-0.049V14.676z M135.364,13.747h0.061c0.217,0,0.438-0.04,0.438-0.309
		c0-0.284-0.209-0.312-0.439-0.312h-0.059V13.747z"/>
	<path fill="#231F20" d="M135.173,12.93h-0.018v1.764h0.229c0,0,0-0.725,0-0.759c0.014,0,0.029,0,0.029,0l0,0
		c0,0.013,0.508,0.751,0.508,0.751l0.25,0.008h0.037c0,0-0.529-0.742-0.557-0.782c0.256-0.035,0.422-0.222,0.422-0.487
		c0-0.333-0.213-0.495-0.65-0.495H135.173z M135.423,12.965c0.418,0,0.613,0.146,0.613,0.46c0,0.257-0.162,0.438-0.416,0.459
		l-0.031,0.003c0,0,0.512,0.719,0.549,0.772c-0.051,0-0.201,0-0.203,0h0.002c0-0.013-0.508-0.752-0.508-0.752l-0.064-0.007h-0.018
		c0,0,0,0.724,0,0.759c-0.025,0-0.131,0-0.156,0c0-0.035,0-1.657,0-1.693C135.222,12.965,135.423,12.965,135.423,12.965z"/>
	<path fill="#231F20" d="M135.364,13.108h-0.018v0.657h0.078c0.213,0,0.455-0.038,0.455-0.327c0-0.305-0.236-0.33-0.457-0.33
		H135.364z M135.423,13.146c0.223,0,0.422,0.021,0.422,0.292c0,0.256-0.213,0.291-0.42,0.291c0,0-0.023,0-0.041,0
		c0-0.033,0-0.551,0-0.583C135.401,13.146,135.423,13.146,135.423,13.146z"/>
	<path fill="#231F20" d="M137.917,12.948h0.258l-0.811,0.805l0.838,0.923h-0.266l-0.709-0.793l-0.047,0.047v0.746h-0.193v-1.728
		h0.193v0.74L137.917,12.948z"/>
	<path fill="#231F20" d="M138.175,12.93h-0.266c0,0-0.654,0.657-0.711,0.715c0-0.078,0-0.715,0-0.715h-0.229v1.764h0.229
		c0,0,0-0.758,0-0.761c0.002,0.001,0.018-0.013,0.029-0.024c0.024,0.026,0.695,0.779,0.695,0.779l0.279,0.006h0.041
		c0,0-0.832-0.917-0.855-0.94c0.025-0.025,0.83-0.824,0.83-0.824H138.175z M138.132,12.965c-0.059,0.058-0.793,0.787-0.793,0.787
		s0.771,0.849,0.822,0.906c-0.059,0-0.225,0-0.225,0l0,0c0-0.009-0.695-0.787-0.695-0.787l-0.012-0.015l-0.062,0.062
		c0,0-0.004,0.706-0.004,0.74c-0.027,0-0.131,0-0.156,0c0-0.035,0-1.657,0-1.693c0.025,0,0.129,0,0.156,0c0,0.035,0,0.767,0,0.767
		s0.75-0.756,0.76-0.767C137.935,12.965,138.073,12.965,138.132,12.965z"/>
</g>
</svg>