<?xml version="1.0" encoding="utf-8"?>
<!-- Generator: Adobe Illustrator 16.2.1, SVG Export Plug-In . SVG Version: 6.00 Build 0)  -->
<!DOCTYPE svg PUBLIC "-//W3C//DTD SVG 1.1//EN" "http://www.w3.org/Graphics/SVG/1.1/DTD/svg11.dtd">
<svg version="1.1" id="Layer_1" xmlns="http://www.w3.org/2000/svg" xmlns:xlink="http://www.w3.org/1999/xlink" x="0px" y="0px"
	 width="28.676px" height="28.676px" viewBox="0 0 28.676 28.676" enable-background="new 0 0 28.676 28.676" xml:space="preserve">
<path fill="#F3703C" d="M14.338,0C6.42,0,0,6.42,0,14.338s6.42,14.338,14.338,14.338c7.221,0,13.189-5.338,14.188-12.281
	c0.098-0.473,0.143-0.961,0.133-1.465c0.012-0.196,0.018-0.393,0.018-0.592C28.676,6.42,22.258,0,14.338,0z M20.938,11.736
	c0.006,0.133,0.008,0.266,0.008,0.399c0,4.094-3.113,8.815-8.812,8.815c-1.75,0-3.377-0.514-4.748-1.395
	C7.627,19.586,7.873,19.6,8.123,19.6c1.451,0,2.787-0.494,3.849-1.326c-1.354-0.021-2.5-0.92-2.896-2.148
	c0.189,0.037,0.386,0.057,0.584,0.057c0.281,0,0.556-0.039,0.816-0.107c-1.418-0.285-2.486-1.538-2.486-3.039
	c0-0.017,0-0.027,0-0.039c0.418,0.229,0.896,0.371,1.404,0.387c-0.832-0.557-1.379-1.504-1.379-2.578c0-0.568,0.152-1.1,0.42-1.559
	c1.527,1.875,3.811,3.106,6.385,3.238c-0.053-0.228-0.08-0.466-0.08-0.707c0-1.711,1.389-3.099,3.1-3.099
	c0.891,0,1.695,0.377,2.26,0.979c0.707-0.14,1.369-0.396,1.969-0.752c-0.23,0.723-0.723,1.33-1.361,1.713
	c0.627-0.072,1.225-0.24,1.777-0.486C22.066,10.754,21.543,11.299,20.938,11.736z"/>
</svg>
