<?xml version="1.0" encoding="utf-8"?>
<!-- Generator: Adobe Illustrator 16.2.1, SVG Export Plug-In . SVG Version: 6.00 Build 0)  -->
<!DOCTYPE svg PUBLIC "-//W3C//DTD SVG 1.1//EN" "http://www.w3.org/Graphics/SVG/1.1/DTD/svg11.dtd" [
	<!ENTITY st0 "fill:#F3703C;">
]>
<svg version="1.1" id="Layer_1" xmlns="http://www.w3.org/2000/svg" xmlns:xlink="http://www.w3.org/1999/xlink" x="0px" y="0px"
	 width="28.715px" height="28.719px" viewBox="382.459 291.98 28.715 28.719"
	 style="enable-background:new 382.459 291.98 28.715 28.719;" xml:space="preserve">
<path style="&st0;" d="M396.817,291.98c-7.933,0-14.358,6.432-14.358,14.361s6.428,14.358,14.358,14.358
	c7.93,0,14.356-6.43,14.356-14.358C411.175,298.412,404.747,291.98,396.817,291.98z M401.946,299.164v10.98h-0.013
	c0.004,0.021,0.008,0.039,0.009,0.062c0.094,1.228-0.827,2.344-2.059,2.498c-1.229,0.151-2.304-0.718-2.395-1.946
	c-0.096-1.227,0.83-2.345,2.058-2.496c0.389-0.048,0.762,0.006,1.093,0.141v-6.025l-5.771,1.074v7.527h-0.012
	c0.004,0.021,0.009,0.041,0.009,0.062c0.095,1.229-0.828,2.344-2.058,2.496c-1.23,0.153-2.302-0.718-2.395-1.942
	c-0.096-1.229,0.826-2.347,2.057-2.498c0.389-0.048,0.762,0.008,1.094,0.144v-8.677v-0.002l8.371-1.431l0.01-0.002v0.002
	l0.004-0.002L401.946,299.164z"/>
</svg>
