<?xml version="1.0" encoding="utf-8"?>
<!-- Generator: Adobe Illustrator 17.0.0, SVG Export Plug-In . SVG Version: 6.00 Build 0)  -->
<!DOCTYPE svg PUBLIC "-//W3C//DTD SVG 1.1//EN" "http://www.w3.org/Graphics/SVG/1.1/DTD/svg11.dtd">
<svg version="1.1" id="Layer_1" xmlns="http://www.w3.org/2000/svg" xmlns:xlink="http://www.w3.org/1999/xlink" x="0px" y="0px"
	 width="29.626px" height="28.009px" viewBox="0 0 29.626 28.009" enable-background="new 0 0 29.626 28.009" xml:space="preserve">
<path fill="#167EC2" d="M1.956,28.008C0.875,28.007,0.001,27.133,0,26.053l0,0V5.711C0.001,4.63,0.875,3.756,1.956,3.755l0,0h10.489
	L9.649,6.549H2.795v18.665l17.843,0.001v-3.753l2.795-2.794l-0.001,7.385c-0.001,1.08-0.875,1.955-1.956,1.956l0,0L1.956,28.008
	L1.956,28.008z"/>
<path fill="#167EC2" d="M20.545,3.509V0l9.081,9.081l-9.12,9.12v-3.648c0,0-5.349-0.37-9.185,2.005
	c-2.549,1.578-4.068,3.157-5.33,5.291c0,0,0.344-5.666,3.604-10.828C13.671,4.569,20.545,3.509,20.545,3.509z"/>
</svg>
