<?xml version="1.0" encoding="utf-8"?>
<!-- Generator: Adobe Illustrator 16.2.1, SVG Export Plug-In . SVG Version: 6.00 Build 0)  -->
<!DOCTYPE svg PUBLIC "-//W3C//DTD SVG 1.1//EN" "http://www.w3.org/Graphics/SVG/1.1/DTD/svg11.dtd" [
	<!ENTITY st0 "fill:#505150;">
]>
<svg version="1.1" id="Layer_1" xmlns="http://www.w3.org/2000/svg" xmlns:xlink="http://www.w3.org/1999/xlink" x="0px" y="0px"
	 width="11.026px" height="11.027px" viewBox="0 0 11.026 11.027" style="enable-background:new 0 0 11.026 11.027;"
	 xml:space="preserve">
<path style="&st0;" d="M10.758,9.458L8.119,6.819c-0.03-0.03-0.064-0.054-0.097-0.079c0.445-0.684,0.706-1.498,0.706-2.376
	C8.729,1.954,6.775,0,4.364,0C1.954,0,0,1.954,0,4.364c0,2.411,1.954,4.364,4.364,4.364c0.877,0,1.692-0.261,2.377-0.707
	C6.767,8.056,6.79,8.088,6.819,8.119l2.638,2.639c0.18,0.179,0.416,0.269,0.65,0.269c0.235,0,0.47-0.09,0.651-0.269
	C11.115,10.399,11.115,9.817,10.758,9.458 M4.364,7.351c-1.646,0-2.986-1.339-2.986-2.986c0-1.646,1.34-2.986,2.986-2.986
	c1.646,0,2.986,1.34,2.986,2.986C7.351,6.011,6.01,7.351,4.364,7.351"/>
</svg>
